<svg id="Group_8134" data-name="Group 8134" xmlns="http://www.w3.org/2000/svg" xmlns:xlink="http://www.w3.org/1999/xlink" width="82.92" height="113.685" viewBox="0 0 82.92 113.685">
  <defs>
    <clipPath id="clip-path">
      <rect id="Rectangle_3323" data-name="Rectangle 3323" width="82.92" height="113.685" fill="none"/>
    </clipPath>
  </defs>
  <g id="Group_8133" data-name="Group 8133" clip-path="url(#clip-path)">
    <path id="Path_23237" data-name="Path 23237" d="M83.024,162.043h-1.2a36.982,36.982,0,0,0-2.354-3.941q-.607.436-.606,1.924,0,1.113.644,1.113h.265l-.34.9H78.69a.744.744,0,0,1-.617-.351,2.094,2.094,0,0,1-.3-1.236,3.517,3.517,0,0,1,.726-2.367,3.054,3.054,0,0,1,.611-.541q-.52-.756-1.424-1.968v-.123h1.288q1.277,1.709,2.294,3.326a2.024,2.024,0,0,0,.487-1.377q0-1.033-.627-1.033h-.4l.368-.916h.655a1.009,1.009,0,0,1,.831.387,1.58,1.58,0,0,1,.312,1.021,2.862,2.862,0,0,1-1.309,2.485q1.06,1.789,1.439,2.582Zm-6.317-3.474a1.273,1.273,0,0,1-.081.529l-.065.1h-.985v-2.053q0-.652-.384-.652h-.476l.362-1.033h.509q1.119,0,1.12,1.408Zm-2.481.4a3.69,3.69,0,0,1-.671,2.251,2.155,2.155,0,0,1-1.813.947,2.193,2.193,0,0,1-1.315-.3l-.2-.99.043-.067a1.663,1.663,0,0,0,1.2.418,1.33,1.33,0,0,0,1.175-.664,3.094,3.094,0,0,0,.422-1.715v-.166a2.9,2.9,0,0,0-.422-1.666,1.342,1.342,0,0,0-1.175-.64,1.714,1.714,0,0,0-1.228.43l-.043-.062.233-1.021a2.134,2.134,0,0,1,1.315-.326,2.211,2.211,0,0,1,1.764.818,3.29,3.29,0,0,1,.719,2.213Zm-4.967,3.075H68.117v-4.888q0-.664-.466-.664h-.417l.362-1.033h.487q1.175,0,1.175,1.488Zm-2.711,0H65.406v-4.47q0-1.071-.968-1.07H62.846a1.547,1.547,0,0,1,.217.83v3.173a1.831,1.831,0,0,1-.33,1.144,1.143,1.143,0,0,1-.963.455h-.578l-.32-.965h.487a.522.522,0,0,0,.428-.2.748.748,0,0,0,.162-.48v-3.062a.871.871,0,0,0-.417-.873l-.168-.08.373-.983h2.8q2.007,0,2.007,2.214Zm-8.594-4.452a4.9,4.9,0,0,1-1.017,3.34,3.69,3.69,0,0,1-2.917,1.113H52.17l-.341-4.8q-.059-.787-.568-.787h-.195l.362-1h.3q1.092,0,1.185,1.261l.157,2.1a1.094,1.094,0,0,0,1.093-.572,2.946,2.946,0,0,0,.195-1.223.673.673,0,0,0-.113-.443.438.438,0,0,0-.347-.129h-.281l.362-1h.477a.852.852,0,0,1,.693.307,1.836,1.836,0,0,1,.281,1.15,2.986,2.986,0,0,1-.471,1.875,2.259,2.259,0,0,1-1.851.646l.109,1.623h.666a2.732,2.732,0,0,0,2.2-.879,3.793,3.793,0,0,0,.752-2.534v-.424a.932.932,0,0,0-.162-.609.436.436,0,0,0-.358-.16H56.1l.379-1h.3q1.174,0,1.174,1.384Zm-7.136,3.56-.406.892H46.1l.336-1.021H49.1a1.3,1.3,0,0,1-.108-.56V157.85a1.334,1.334,0,0,0-1.4-1.408,2.372,2.372,0,0,0-1.283.314l-.049-.061.271-1.039a2.943,2.943,0,0,1,1.277-.246q2.316,0,2.316,2.454v2.564q0,.6.336.6h.352Zm-5.519.892H44.157v-4.888q0-.664-.466-.664h-.417l.362-1.033h.487q1.175,0,1.175,1.488Zm-2.725,0H39.993l.4-1.058h1.05v-3.45q0-1.045-.72-1.045h-.5l.352-1.033h.514a1.347,1.347,0,0,1,1.085.47,1.9,1.9,0,0,1,.4,1.27Zm-6.772,0H34.661v-3.554H35.8Zm3.436,0H38.107v-3.991q0-1.716-1.872-1.716a3.312,3.312,0,0,0-.86.135,2.23,2.23,0,0,0-.8.357l-.043-.062.336-1.082a3.115,3.115,0,0,1,1.715-.345q2.657,0,2.657,2.459Zm-8.589-5.663a4,4,0,0,1,.7,2.429,3.792,3.792,0,0,1-.709,2.361,2.314,2.314,0,0,1-1.937.972,1.261,1.261,0,0,1-.769-.209l-.276-.922.032-.037a1.352,1.352,0,0,0,.72.24,1.559,1.559,0,0,0,1.244-.547,2.578,2.578,0,0,0,.52-1.734,3.254,3.254,0,0,0-.442-1.734,1.265,1.265,0,0,0-1.074-.719q-.942,0-1.245,1.728l-.677,3.837H25.6l.779-4.544q-.455-.854-1.055-1.918v-.123h1.239a13.473,13.473,0,0,1,.757,1.322,1.947,1.947,0,0,1,.682-.99,1.543,1.543,0,0,1,.952-.332,2.054,2.054,0,0,1,1.7.922M24.6,157.591a4.9,4.9,0,0,1-1.017,3.34,3.69,3.69,0,0,1-2.917,1.113H18.812l-.341-4.8q-.06-.787-.568-.787h-.195l.362-1h.3q1.092,0,1.185,1.261l.157,2.1a1.094,1.094,0,0,0,1.093-.572A2.958,2.958,0,0,0,21,157.026a.673.673,0,0,0-.113-.443.44.44,0,0,0-.347-.129h-.281l.362-1H21.1a.853.853,0,0,1,.693.307,1.836,1.836,0,0,1,.281,1.15,2.986,2.986,0,0,1-.471,1.875,2.259,2.259,0,0,1-1.851.646l.109,1.623h.665a2.732,2.732,0,0,0,2.2-.879,3.793,3.793,0,0,0,.752-2.534v-.424a.932.932,0,0,0-.162-.609.436.436,0,0,0-.358-.16h-.206l.379-1h.3q1.174,0,1.174,1.384ZM17.205,159.1a3.208,3.208,0,0,1-.785,2.306,2.611,2.611,0,0,1-2,.793,3.152,3.152,0,0,1-1.639-.369l-.179-1.07.049-.061a2.607,2.607,0,0,0,1.672.467q1.748,0,1.748-2.2v-.541q0-2.1-1.639-2.1a1.581,1.581,0,0,0-.807.129,2.011,2.011,0,0,0-.135.928q0,.806.514.806h.449v.067l-.341.9h-.622a.941.941,0,0,1-.833-.5,2.336,2.336,0,0,1-.3-1.248,3.7,3.7,0,0,1,.336-1.74,3.783,3.783,0,0,1,1.91-.332q2.6,0,2.6,2.964Zm-5.947,2.945H10.117v-4.1a1.779,1.779,0,0,0-.265-1.021.924.924,0,0,0-.812-.424h-1.7a1.352,1.352,0,0,1,.221.885v4.655H6.427v-4.772a.8.8,0,0,0-.352-.756l-.091-.056.378-1H9.154q2.105,0,2.105,2.465Zm-9.655,0H.462v-3.554H1.6Zm3.436,0H3.908v-3.991q0-1.716-1.872-1.716a3.312,3.312,0,0,0-.86.135,2.23,2.23,0,0,0-.8.357l-.043-.062.336-1.082a3.118,3.118,0,0,1,1.716-.345q2.656,0,2.657,2.459Z" transform="translate(-0.103 -48.512)" fill="#83754e"/>
    <path id="Path_23238" data-name="Path 23238" d="M82.877,133.839l-.349,1.886a4.219,4.219,0,0,1-2.111,3.122q.749.667,2.145,1.833l-.519,2.175H74.2l.468-2.482h4.621a13.039,13.039,0,0,1-2.443-2.149,8.393,8.393,0,0,1-1.3-1.869H74.367l.459-2.517h2.961a6.8,6.8,0,0,0,.468,2.386,5.348,5.348,0,0,0,1.132,1.587,1.959,1.959,0,0,0,.715-1.456h-1.08l.477-2.517Zm-9.655,9.016H70.8v-6.5H66.439l.468-2.517h6.315Zm-7.8,0H57.474l.5-2.482H63v-4.132H60.981l-.213,1.281H61.6l.4,1.7H58.087l.5-2.868h-1l.493-2.517h7.336Zm-8.892,0H54.114v-6.5H51.936v3.412q0,3.087-2.842,3.087H47.715l.468-2.447h.749q.579,0,.579-.64v-3.412H47.961l.468-2.517h8.1ZM46.8,139.339H44.374v-2.983h-1.1l.451-2.517H46.8Zm-7.41-5.5-.961,5.3q-.681,3.72-4.042,3.719H30.173l-.732-6.5h-.928l.451-2.517h2.63l.459,4.561h.119l.894-4.561H35.45l-1.03,5.122H32.1l.136,1.413h2.026a1.908,1.908,0,0,0,1.157-.285,1.48,1.48,0,0,0,.493-.969l1-5.28ZM27.5,142.855H22.781l.587-2.482h1.694v-4.018H23.93q-.7,0-.945.842l-1.65,5.657H18.79l1.362-4.456-.562-2.044H18.475l.434-2.517H21.6l.486,2.078h.1l.23-.605a2.085,2.085,0,0,1,.953-1.2,3.3,3.3,0,0,1,1.506-.272H27.5Zm-9.641-9.016-.715,5.535q-.452,3.483-4.06,3.482H9.1l.451-2.482h1.609l-.732-4.018H9.217l.46-2.517H12.6l.953,6.631a1.075,1.075,0,0,0,1.148-1.1l.391-3.018H14.068l.5-2.517Zm-9.791,9.016H5.647v-6.5h-1.1L5,133.839H8.072Zm-4.549,2.8H1.1v-9.3H0l.451-2.517H3.523Z" transform="translate(0 -41.797)" fill="#83754e"/>
    <path id="Path_23239" data-name="Path 23239" d="M10.687,64.283H85.062v1.656H9.031Z" transform="translate(-2.82 -20.075)" fill="#83754e"/>
    <rect id="Rectangle_3293" data-name="Rectangle 3293" width="81.59" height="1.661" transform="translate(0.656 82.96)" fill="#83754e"/>
    <rect id="Rectangle_3294" data-name="Rectangle 3294" width="55.09" height="1.656" transform="translate(10.667)" fill="#83754e"/>
    <rect id="Rectangle_3295" data-name="Rectangle 3295" width="81.585" height="1.656" transform="translate(0.656 77.431)" fill="#83754e"/>
    <rect id="Rectangle_3296" data-name="Rectangle 3296" width="81.585" height="1.656" transform="translate(0.656 71.894)" fill="#83754e"/>
    <rect id="Rectangle_3297" data-name="Rectangle 3297" width="81.585" height="1.656" transform="translate(0.656 66.357)" fill="#83754e"/>
    <rect id="Rectangle_3298" data-name="Rectangle 3298" width="81.585" height="1.659" transform="translate(0.656 60.818)" fill="#83754e"/>
    <rect id="Rectangle_3299" data-name="Rectangle 3299" width="81.585" height="1.658" transform="translate(0.656 55.281)" fill="#83754e"/>
    <path id="Path_23240" data-name="Path 23240" d="M2.645,72.33h79.9v1.658H.986Z" transform="translate(-0.308 -22.588)" fill="#83754e"/>
    <rect id="Rectangle_3300" data-name="Rectangle 3300" width="55.154" height="1.657" transform="translate(10.667 38.668)" fill="#83754e"/>
    <rect id="Rectangle_3301" data-name="Rectangle 3301" width="55.154" height="1.657" transform="translate(10.667 33.132)" fill="#83754e"/>
    <rect id="Rectangle_3302" data-name="Rectangle 3302" width="55.09" height="1.658" transform="translate(10.667 27.593)" fill="#83754e"/>
    <rect id="Rectangle_3303" data-name="Rectangle 3303" width="55.09" height="1.656" transform="translate(10.667 22.055)" fill="#83754e"/>
    <rect id="Rectangle_3304" data-name="Rectangle 3304" width="55.09" height="1.661" transform="translate(10.667 16.517)" fill="#83754e"/>
    <rect id="Rectangle_3305" data-name="Rectangle 3305" width="55.09" height="1.657" transform="translate(10.667 10.98)" fill="#83754e"/>
    <rect id="Rectangle_3306" data-name="Rectangle 3306" width="55.09" height="1.657" transform="translate(10.667 5.443)" fill="#83754e"/>
    <rect id="Rectangle_3307" data-name="Rectangle 3307" width="17.772" height="3.87" transform="translate(20.899 80.194)" fill="#83754e"/>
    <rect id="Rectangle_3308" data-name="Rectangle 3308" width="17.772" height="3.868" transform="translate(20.899 74.658)" fill="#83754e"/>
    <rect id="Rectangle_3309" data-name="Rectangle 3309" width="17.772" height="3.87" transform="translate(20.899 69.119)" fill="#83754e"/>
    <rect id="Rectangle_3310" data-name="Rectangle 3310" width="17.772" height="3.868" transform="translate(20.899 63.582)" fill="#83754e"/>
    <rect id="Rectangle_3311" data-name="Rectangle 3311" width="17.772" height="3.872" transform="translate(20.899 58.042)" fill="#83754e"/>
    <rect id="Rectangle_3312" data-name="Rectangle 3312" width="17.772" height="3.868" transform="translate(20.899 52.506)" fill="#83754e"/>
    <path id="Path_23241" data-name="Path 23241" d="M68.319,68.3h35.192v3.868H72.19Z" transform="translate(-21.335 -21.329)" fill="#83754e"/>
    <path id="Path_23242" data-name="Path 23242" d="M60.282,60.243H101v3.869H64.153Z" transform="translate(-18.826 -18.813)" fill="#83754e"/>
    <rect id="Rectangle_3313" data-name="Rectangle 3313" width="16.49" height="3.87" transform="translate(65.685 25.381)" fill="#83754e"/>
    <rect id="Rectangle_3314" data-name="Rectangle 3314" width="16.49" height="3.868" transform="translate(65.685 19.844)" fill="#83754e"/>
    <path id="Path_23243" data-name="Path 23243" d="M95.513,20.8h13.033l3.529,3.87H95.513Z" transform="translate(-29.828 -6.497)" fill="#83754e"/>
    <path id="Path_23244" data-name="Path 23244" d="M95.513,12.749h8.008l3.513,3.87H95.513Z" transform="translate(-29.828 -3.981)" fill="#83754e"/>
    <path id="Path_23245" data-name="Path 23245" d="M95.513,2.39h1.47l5,5.456h-6.47Z" transform="translate(-29.828 -0.746)" fill="#83754e"/>
    <rect id="Rectangle_3315" data-name="Rectangle 3315" width="16.424" height="3.868" transform="translate(65.752 36.456)" fill="#83754e"/>
    <rect id="Rectangle_3316" data-name="Rectangle 3316" width="16.424" height="3.87" transform="translate(65.752 30.917)" fill="#83754e"/>
    <path id="Path_23246" data-name="Path 23246" d="M52.059,52.191H76.769l3.873,3.868H55.93Z" transform="translate(-16.258 -16.299)" fill="#83754e"/>
    <path id="Path_23247" data-name="Path 23247" d="M43.84,44.138H68.654l3.92,3.873H47.8Z" transform="translate(-13.691 -13.784)" fill="#83754e"/>
    <rect id="Rectangle_3317" data-name="Rectangle 3317" width="31.297" height="3.87" transform="translate(50.879 80.194)" fill="#83754e"/>
    <rect id="Rectangle_3318" data-name="Rectangle 3318" width="31.297" height="3.868" transform="translate(50.879 74.658)" fill="#83754e"/>
    <rect id="Rectangle_3319" data-name="Rectangle 3319" width="31.297" height="3.87" transform="translate(50.879 69.119)" fill="#83754e"/>
    <rect id="Rectangle_3320" data-name="Rectangle 3320" width="31.297" height="3.868" transform="translate(50.879 63.582)" fill="#83754e"/>
    <rect id="Rectangle_3321" data-name="Rectangle 3321" width="31.297" height="3.872" transform="translate(50.879 58.042)" fill="#83754e"/>
    <rect id="Rectangle_3322" data-name="Rectangle 3322" width="31.297" height="3.868" transform="translate(50.879 52.506)" fill="#83754e"/>
    <path id="Path_23248" data-name="Path 23248" d="M22.61,68.3H41.715l3.868,3.868H26.479Z" transform="translate(-7.061 -21.329)" fill="#83754e"/>
    <path id="Path_23249" data-name="Path 23249" d="M15.275,60.243H33.887l3.872,3.869H19.145Z" transform="translate(-4.77 -18.813)" fill="#83754e"/>
    <path id="Path_23250" data-name="Path 23250" d="M35.817,36.119H60.632l3.917,3.868H39.779Z" transform="translate(-11.185 -11.28)" fill="#83754e"/>
  </g>
</svg>
