<svg xmlns="http://www.w3.org/2000/svg" width="199.948" height="72.175" viewBox="0 0 199.948 72.175">
  <g id="Group_8844" data-name="Group 8844" transform="translate(-1222.63 290.087)">
    <g id="Group_8836" data-name="Group 8836" transform="translate(1925.581 -574.652)">
      <g id="Group_8833" data-name="Group 8833" transform="translate(-702.951 304.971)">
        <path id="Path_24329" data-name="Path 24329" d="M-587.257,364.352a4.409,4.409,0,0,0-1.385-.25,5.241,5.241,0,0,0-1.475.184l-5.458,1.546a3.26,3.26,0,0,0,1.038,1,5.1,5.1,0,0,0,1.408.594,6.074,6.074,0,0,0,1.581.188,5.892,5.892,0,0,0,1.556-.219l.008.011,4.888-1.375a4,4,0,0,0-.95-1.027,4.473,4.473,0,0,0-1.213-.656" transform="translate(652.413 -342.406)" fill="#26c2e7"/>
        <path id="Path_24330" data-name="Path 24330" d="M-658.348,353.256c0-.3-.086-.427-.427-.427l-14.654-.064V341.034l14.313-.064a.36.36,0,0,0,.363-.363V337.9c0-.32-.107-.427-.448-.427h-14.227V326.636l14.739-.042a.356.356,0,0,0,.341-.363V323.5c0-.32-.128-.384-.47-.384h-18.13c-.278,0-.427.213-.427.555v32.252a.438.438,0,0,0,.427.384h18.258a.356.356,0,0,0,.341-.363Zm-25.746-8.276c0-6.143-3.69-7.892-8-7.935l-3.5-.042c-1.877-.021-3.733-.917-3.733-4.031v-1.877c0-3.413,2.176-4.373,4.159-4.373l8.916-.043c.341,0,.363-.192.363-.512v-2.56a.467.467,0,0,0-.469-.384h-8.98c-3.8,0-7.616,1.728-7.616,7.4v3.285c0,6.42,4.139,6.655,7.53,6.719l2.987.043c2.347.021,4.288,1.813,4.288,5.525v1.685c0,3.477-1.749,4.885-4.138,4.885l-9.6.043a.409.409,0,0,0-.469.47V355.9a.447.447,0,0,0,.427.405h9.791c5.013,0,8.042-2.475,8.042-8.255Z" transform="translate(702.951 -323.116)" fill="#b38f5e"/>
        <path id="Path_24331" data-name="Path 24331" d="M-584.257,355.667l-10.474-31.825c-.256-.725-.341-.725-.853-.725h-4.586c-.512,0-.618,0-.832.725l-10.068,31.825c-.128.363-.149.64.17.64h3.456c.384,0,.576-.6.661-.874,0,0,8.511-27.453,8.511-28.007h.789c0,.576,8.511,28.007,8.511,28.007.086.256.32.874.662.874h3.882c.32,0,.277-.277.171-.64" transform="translate(659.747 -323.116)" fill="#b38f5e"/>
        <path id="Path_24332" data-name="Path 24332" d="M-485.117,332.63c0-7.445-3.178-9.514-8.767-9.514h-11.668c-.3,0-.32.213-.32.555v32.081c0,.32.085.555.363.555h3.391c.277,0,.427-.235.427-.555v-11.37h7.807c5.055,0,8.767-3.071,8.767-8.681Zm-4.031,3.178c0,4.1-2.965,5.247-4.97,5.247h-7.573V326.337h7.445c2.389,0,5.1,1.536,5.1,5.781Z" transform="translate(610.193 -323.116)" fill="#b38f5e"/>
        <path id="Path_24333" data-name="Path 24333" d="M-367.224,353.768c0-.405-.149-.533-.3-.533l-.7-.064c-.64-.064-1.024-.043-2.09-1.45l-10.047-13.1,13.033-15.06a1.665,1.665,0,0,0-.192-.448h-3.755a.813.813,0,0,0-.6.3L-384.5,338.261c-.363.427-.7.277-.7-.213V323.671c0-.341-.106-.555-.384-.555h-3.136c-.277,0-.427.213-.427.555v32.081c0,.533.128.554.47.554h3.178c.277,0,.3-.234.3-.554V340.458c0-.47.256-.64.661-.128l11.839,15.678a.635.635,0,0,0,.534.3h4.586a.411.411,0,0,0,.363-.384Zm-25.246,0c0-.405-.149-.533-.3-.533l-.7-.064c-.639-.064-1.088-.043-2.154-1.45l-6.57-8.532c6.975-.32,8.959-4.821,8.959-9.172V332.63c0-7.445-3.946-9.514-9.172-9.514H-413.14c-.277,0-.427.213-.427.555v32.081c0,.32-.022.554.277.554h3.584c.277,0,.3-.234.3-.554V341.738c0-.533.363-.533.661-.128l10.559,14.4a.643.643,0,0,0,.555.3h4.8a.411.411,0,0,0,.363-.384Zm-4.842-19.39c0,4.117-2.517,5.674-4.928,5.674h-7.167V326.507h7.039c2.41,0,5.055,1.536,5.055,5.845Z" transform="translate(566.748 -323.116)" fill="#b38f5e"/>
        <path id="Path_24334" data-name="Path 24334" d="M-447.524,364.352a4.409,4.409,0,0,0-1.385-.25,5.241,5.241,0,0,0-1.475.184l-5.458,1.546a3.26,3.26,0,0,0,1.038,1,5.1,5.1,0,0,0,1.408.594,6.074,6.074,0,0,0,1.581.188,5.892,5.892,0,0,0,1.556-.219l.008.011,4.888-1.375a4,4,0,0,0-.95-1.027,4.473,4.473,0,0,0-1.213-.656" transform="translate(586.645 -342.406)" fill="#3fa25c"/>
        <path id="Path_24335" data-name="Path 24335" d="M-443.853,355.667l-10.473-31.825c-.256-.725-.341-.725-.853-.725h-4.586c-.512,0-.618,0-.832.725l-10.068,31.825c-.128.363-.149.64.17.64h3.455c.384,0,.576-.6.661-.874,0,0,8.511-27.453,8.511-28.007h.789c0,.576,8.511,28.007,8.511,28.007.086.256.32.874.662.874h3.882c.32,0,.277-.277.17-.64" transform="translate(593.664 -323.116)" fill="#b38f5e"/>
      </g>
      <path id="Path_24336" data-name="Path 24336" d="M-697.223,291.585a.771.771,0,0,1-.385.234,1.612,1.612,0,0,1-.5.056,1.871,1.871,0,0,1-.491-.084.707.707,0,0,1-.34-.206v-6.506a1.442,1.442,0,0,1,.882-.257,1.252,1.252,0,0,1,.837.257Zm14.759,4.922a.714.714,0,0,1-.34.167,2.129,2.129,0,0,1-.5.056,2.272,2.272,0,0,1-.513-.056.724.724,0,0,1-.352-.167v-7.544a4.819,4.819,0,0,0-.128-1.161,2.223,2.223,0,0,0-.424-.876,2,2,0,0,0-.776-.569,2.994,2.994,0,0,0-1.183-.206h-2.88a.284.284,0,0,0-.257.145.983.983,0,0,0-.123.363,3.022,3.022,0,0,0-.033.458v6.366a3.334,3.334,0,0,1-.848,2.561,3.325,3.325,0,0,1-2.332.775,3.382,3.382,0,0,1-.631-.067,1.29,1.29,0,0,1-.53-.2.8.8,0,0,1-.156-.726,1.032,1.032,0,0,1,.29-.558,2.126,2.126,0,0,0,.419.24,1.169,1.169,0,0,0,.474.106,1.453,1.453,0,0,0,1.194-.491,2.57,2.57,0,0,0,.4-1.618v-5.211q0-.179.012-.452a3.872,3.872,0,0,1,.067-.569,2.857,2.857,0,0,1,.184-.6,1.638,1.638,0,0,1,.351-.525h-2.031a.6.6,0,0,1-.178-.263,1.309,1.309,0,0,1-.084-.368.818.818,0,0,1,.056-.38.917.917,0,0,1,.206-.318h6.807a3.962,3.962,0,0,1,2.846.949,3.922,3.922,0,0,1,.994,2.957Zm14.549-5.815a6.833,6.833,0,0,1-.457,2.517,6.177,6.177,0,0,1-1.261,2.014,5.725,5.725,0,0,1-1.92,1.328,6.123,6.123,0,0,1-2.444.48,8.924,8.924,0,0,1-2.65-.357,6.491,6.491,0,0,1-1.791-.815,1.326,1.326,0,0,1-.212-.737.876.876,0,0,1,.268-.7,5.134,5.134,0,0,0,1.663,1,5.827,5.827,0,0,0,2.132.39,5.1,5.1,0,0,0,2.042-.39,4.429,4.429,0,0,0,1.529-1.071,4.7,4.7,0,0,0,.96-1.618,6.028,6.028,0,0,0,.335-2.043A6.6,6.6,0,0,0-670,288.75a4.575,4.575,0,0,0-.792-1.54,3.775,3.775,0,0,0-1.284-1.027,3.825,3.825,0,0,0-1.724-.38,4.547,4.547,0,0,0-1.54.24,3.34,3.34,0,0,0-1.127.653,2.934,2.934,0,0,0-.709.96,2.751,2.751,0,0,0-.251,1.161,2.251,2.251,0,0,0,.262,1.116,2.459,2.459,0,0,0,.67.775,2.842,2.842,0,0,0,.915.457,3.534,3.534,0,0,0,1.01.151,3.135,3.135,0,0,0,.92-.162,4.957,4.957,0,0,0,.854-.34.757.757,0,0,1,.257.553.823.823,0,0,1-.234.63,2.653,2.653,0,0,1-.921.391,4.561,4.561,0,0,1-1.133.156,5.632,5.632,0,0,1-1.6-.229,4.23,4.23,0,0,1-1.378-.687,3.543,3.543,0,0,1-.971-1.127,3.189,3.189,0,0,1-.368-1.562,4.418,4.418,0,0,1,.318-1.663,3.762,3.762,0,0,1,.982-1.395,4.881,4.881,0,0,1,1.669-.96,7.1,7.1,0,0,1,2.377-.357,6.311,6.311,0,0,1,2.416.446,5.3,5.3,0,0,1,1.853,1.25,5.65,5.65,0,0,1,1.188,1.93A7.051,7.051,0,0,1-667.915,290.692Zm11.448,5.815a.8.8,0,0,1-.34.178,1.816,1.816,0,0,1-.508.067,2.3,2.3,0,0,1-.519-.056.626.626,0,0,1-.351-.189v-6.562a4.4,4.4,0,0,0-.274-1.557,3.747,3.747,0,0,0-.775-1.267,3.628,3.628,0,0,0-1.222-.848,3.949,3.949,0,0,0-1.591-.313,6.01,6.01,0,0,0-1.724.229,7.022,7.022,0,0,0-1.356.552.793.793,0,0,1-.268-.681,1,1,0,0,1,.268-.714,6.573,6.573,0,0,1,1.574-.48,10.775,10.775,0,0,1,2.009-.178,5.5,5.5,0,0,1,2.02.363,4.619,4.619,0,0,1,1.6,1.038,4.86,4.86,0,0,1,1.066,1.646,5.888,5.888,0,0,1,.391,2.209Zm13.043-11.428a10.541,10.541,0,0,1-.24,2.371,7.128,7.128,0,0,1-.664,1.808,5.589,5.589,0,0,1-1.026,1.356,6.915,6.915,0,0,1-1.361,1.015l2.857,3.861a.781.781,0,0,1,.15.826.629.629,0,0,1-.63.413h-8.749a.671.671,0,0,1-.279-.614.826.826,0,0,1,.279-.67h7.153l-7.455-10.368a.8.8,0,0,1,.408-.212,2.565,2.565,0,0,1,.608-.067,2.862,2.862,0,0,1,.63.067.971.971,0,0,1,.452.212l3.984,5.714a9.569,9.569,0,0,0,.994-.982,3.747,3.747,0,0,0,.642-1.082,6.01,6.01,0,0,0,.34-1.484,19.478,19.478,0,0,0,.1-2.165.784.784,0,0,1,.385-.212,2.055,2.055,0,0,1,.53-.067,1.936,1.936,0,0,1,.519.067A.783.783,0,0,1-643.424,285.078Z" transform="translate(-1.887)" fill="#b38f5e"/>
      <g id="Group_8834" data-name="Group 8834" transform="translate(-623.795 312.668)">
        <path id="Path_24337" data-name="Path 24337" d="M-537.031,357.166l3.755-4.919a.262.262,0,0,0-.187-.426l-2.277-.016c-.34,0-.34.114-.51.328l-2.345,3.049-4.486-5.672.969-.754a5.8,5.8,0,0,0,2.566-4.935v-1.869c0-3.115-1.189-4.3-4.061-4.3h-1.7c-3.5,0-4.4,1.885-4.4,4.443v1.836c0,1.836.323,2.509,2.685,5.378l-3.211,2.787c-2.6,2.279-3.178,4.312-3.178,6.05v1.164c0,3,2.005,3.837,4.4,3.837h5.642a3.26,3.26,0,0,0,2.957-1.623l1.564-2.016,2.583,3.361c.153.23.238.279.578.279h2.786a.225.225,0,0,0,.153-.377Zm-5.149-13.313c0,1.754-.476,2.2-2.43,3.705l-.969-1.148a5.144,5.144,0,0,1-1.512-3.148V342.2c0-1.23.459-1.984,1.954-1.984H-544c1.342,0,1.818.721,1.818,2.082Zm1.733,13.69c-1.818,2.328-2.345,2.82-3.11,2.82h-5.285c-1.155,0-1.7-.082-1.784-2.033-.068-1.853.629-3.017,2.4-4.575l2.855-2.508Z" transform="translate(553.412 -337.656)" fill="#b38f5e"/>
      </g>
      <path id="Path_24338" data-name="Path 24338" d="M-696.134,408.289a.978.978,0,0,1-.117.549.427.427,0,0,1-.375.165h-4.432a.428.428,0,0,1-.375-.165.979.979,0,0,1-.116-.549v-5.343q0-.341.305-.341h3.01a2.08,2.08,0,0,1,1.589.545,2.3,2.3,0,0,1,.51,1.625Zm-1.056.024c.092,0,.138-.078.138-.234v-3.3a1.628,1.628,0,0,0-.321-1.07,1.334,1.334,0,0,0-1.082-.386h-2.075c-.064,0-.1.04-.1.12v4.641c0,.156.048.234.144.234Zm5.779-2.075a.408.408,0,0,1-.206.126.878.878,0,0,1-.27.03,1.026,1.026,0,0,1-.264-.045.377.377,0,0,1-.183-.111v-3.5a.772.772,0,0,1,.474-.138.671.671,0,0,1,.449.138Zm7.853-.413a4.18,4.18,0,0,1-.165,1.169,2.835,2.835,0,0,1-.534,1.019,2.654,2.654,0,0,1-.944.72,3.29,3.29,0,0,1-1.4.269h-.234a.375.375,0,0,1-.12-.312.377.377,0,0,1,.12-.312h.222a2.224,2.224,0,0,0,.993-.2,1.815,1.815,0,0,0,.651-.531,2.088,2.088,0,0,0,.36-.78,4.033,4.033,0,0,0,.108-.95V403.6a.6.6,0,0,0-.03-.192.114.114,0,0,0-.114-.089h-3.184q-.378,0-.378-.5v-2.333a.616.616,0,0,1,.456-.174.658.658,0,0,1,.468.174v1.937q0,.187.156.186h2.962q.612,0,.612.714Zm15.36-.48a3.453,3.453,0,0,1-.287,1.412,3.7,3.7,0,0,1-.792,1.148,4.183,4.183,0,0,1-1.184.816,4.6,4.6,0,0,1-1.466.4.361.361,0,0,1-.126-.306.435.435,0,0,1,.126-.33,3.4,3.4,0,0,0,1.091-.318,3.209,3.209,0,0,0,.885-.633,2.818,2.818,0,0,0,.6-.908,3.048,3.048,0,0,0,.216-1.176,2.273,2.273,0,0,0-.51-1.553,1.8,1.8,0,0,0-1.433-.581h-2.686a.246.246,0,0,1-.12-.135.533.533,0,0,1-.042-.21.579.579,0,0,1,.042-.216.3.3,0,0,1,.12-.152h2.98a3.1,3.1,0,0,1,1.025.165,2.187,2.187,0,0,1,.824.51,2.354,2.354,0,0,1,.546.854A3.385,3.385,0,0,1-668.2,405.345Zm-4.605,5.685a.49.49,0,0,1-.213.141.784.784,0,0,1-.258.045.656.656,0,0,1-.252-.051.508.508,0,0,1-.195-.135v-6.422a.625.625,0,0,1,.459-.2.526.526,0,0,1,.458.2Zm12.1-2.146a.416.416,0,0,1-.183.1.977.977,0,0,1-.273.036,1.218,1.218,0,0,1-.278-.03.331.331,0,0,1-.189-.1v-3.526a2.367,2.367,0,0,0-.147-.836,2.013,2.013,0,0,0-.417-.681,1.963,1.963,0,0,0-.656-.456,2.13,2.13,0,0,0-.855-.168,3.245,3.245,0,0,0-.926.123,3.77,3.77,0,0,0-.728.3.425.425,0,0,1-.144-.366.536.536,0,0,1,.144-.384,3.535,3.535,0,0,1,.845-.258,5.758,5.758,0,0,1,1.079-.1,2.948,2.948,0,0,1,1.086.195,2.478,2.478,0,0,1,.86.557,2.615,2.615,0,0,1,.573.885,3.163,3.163,0,0,1,.21,1.187Zm9.267-.09c.048.068.04.118-.024.15a1.533,1.533,0,0,1-.168.048.945.945,0,0,1-.216.024,1.861,1.861,0,0,1-.357-.036.832.832,0,0,1-.278-.1l-2.848-3.712a2.149,2.149,0,0,0-.567.638,2.808,2.808,0,0,0-.26.777,5.171,5.171,0,0,0-.078,1.016q.006.579.006,1.28a.485.485,0,0,1-.207.09,1.259,1.259,0,0,1-.276.03,1.178,1.178,0,0,1-.27-.03.347.347,0,0,1-.183-.09q0-.8.051-1.559a3.823,3.823,0,0,1,.368-1.415,2.283,2.283,0,0,1,.444-.62q.27-.267.611-.549l-1.571-2a.394.394,0,0,1,.189-.1,1.241,1.241,0,0,1,.288-.042,1.339,1.339,0,0,1,.327.03,1,1,0,0,1,.3.114l2.542,3.226q.186-.174.321-.321a2.02,2.02,0,0,0,.228-.294,1.7,1.7,0,0,0,.153-.305,2.948,2.948,0,0,0,.108-.369,3.144,3.144,0,0,0,.1-.858q-.005-.48-.006-1.079a.806.806,0,0,1,.474-.138.779.779,0,0,1,.467.138q0,.426-.006.843a4.115,4.115,0,0,1-.078.764,3.435,3.435,0,0,1-.189.606,2.688,2.688,0,0,1-.288.516,3.023,3.023,0,0,1-.411.462,6.011,6.011,0,0,1-.564.455Zm9.1-3.034a3.667,3.667,0,0,1-.246,1.352,3.315,3.315,0,0,1-.678,1.082,3.072,3.072,0,0,1-1.031.714,3.289,3.289,0,0,1-1.313.258,4.8,4.8,0,0,1-1.424-.192,3.483,3.483,0,0,1-.962-.438.71.71,0,0,1-.114-.4.469.469,0,0,1,.144-.377,2.756,2.756,0,0,0,.893.539,3.123,3.123,0,0,0,1.145.21,2.732,2.732,0,0,0,1.1-.21,2.381,2.381,0,0,0,.821-.575,2.532,2.532,0,0,0,.516-.87,3.246,3.246,0,0,0,.18-1.1,3.549,3.549,0,0,0-.147-1.043,2.457,2.457,0,0,0-.426-.827,2.027,2.027,0,0,0-.69-.552,2.054,2.054,0,0,0-.926-.2,2.457,2.457,0,0,0-.828.129,1.791,1.791,0,0,0-.606.351,1.576,1.576,0,0,0-.381.516,1.477,1.477,0,0,0-.135.624,1.212,1.212,0,0,0,.141.6,1.328,1.328,0,0,0,.36.417,1.522,1.522,0,0,0,.492.246,1.9,1.9,0,0,0,.543.081,1.682,1.682,0,0,0,.495-.087,2.651,2.651,0,0,0,.458-.183.406.406,0,0,1,.138.3.442.442,0,0,1-.126.339,1.426,1.426,0,0,1-.495.21,2.446,2.446,0,0,1-.608.084,3.023,3.023,0,0,1-.861-.123,2.275,2.275,0,0,1-.741-.368,1.907,1.907,0,0,1-.522-.606,1.714,1.714,0,0,1-.2-.839,2.379,2.379,0,0,1,.17-.893,2.025,2.025,0,0,1,.528-.75,2.617,2.617,0,0,1,.9-.516,3.813,3.813,0,0,1,1.277-.192,3.391,3.391,0,0,1,1.3.24,2.843,2.843,0,0,1,1,.672,3.038,3.038,0,0,1,.638,1.038A3.786,3.786,0,0,1-642.336,405.759Zm8.693,3.124a.428.428,0,0,1-.195.09,1.177,1.177,0,0,1-.27.03,1.175,1.175,0,0,1-.269-.03.479.479,0,0,1-.2-.09v-3.664a2,2,0,0,0-.557-1.6,2.346,2.346,0,0,0-1.565-.474,4.229,4.229,0,0,0-1.217.165,3.3,3.3,0,0,0-.87.375.57.57,0,0,1-.126-.354.567.567,0,0,1,.126-.4,3.461,3.461,0,0,1,.893-.315,6.5,6.5,0,0,1,1.451-.135,3,3,0,0,1,2.093.651,2.676,2.676,0,0,1,.707,2.06Zm-4.251,0a.479.479,0,0,1-.2.09,1.148,1.148,0,0,1-.264.03,1.077,1.077,0,0,1-.258-.03.531.531,0,0,1-.2-.09v-3.712a.667.667,0,0,1,.2-.123.654.654,0,0,1,.252-.051.79.79,0,0,1,.258.045.557.557,0,0,1,.213.129Zm14.8,2.146a.432.432,0,0,1-.195.09,1.152,1.152,0,0,1-.264.03,1.16,1.16,0,0,1-.264-.03.478.478,0,0,1-.2-.09v-8.287a.783.783,0,0,1,.456-.138.648.648,0,0,1,.467.138Zm4.792-4.791a.41.41,0,0,1-.207.126.876.876,0,0,1-.27.03,1.022,1.022,0,0,1-.264-.045.38.38,0,0,1-.183-.111v-3.5a.773.773,0,0,1,.474-.138.671.671,0,0,1,.45.138Zm8.86,2.764H-615a.613.613,0,0,1-.09-.357.623.623,0,0,1,.09-.332h4.054a1,1,0,0,1-.126-.486c0-.184-.006-.366-.006-.546v-1.973a3.162,3.162,0,0,0-.105-.83,1.686,1.686,0,0,0-.339-.663,1.632,1.632,0,0,0-.608-.438,2.271,2.271,0,0,0-.9-.162,4.345,4.345,0,0,0-1.007.117,2.666,2.666,0,0,0-.774.291.526.526,0,0,1-.12-.323.6.6,0,0,1,.12-.426,2.978,2.978,0,0,1,.953-.269,8.545,8.545,0,0,1,1.1-.072,2.514,2.514,0,0,1,1.958.723,2.947,2.947,0,0,1,.656,2.053V407.7a1.747,1.747,0,0,0,.045.465.2.2,0,0,0,.213.147h.444a.606.606,0,0,1,.1.354A.523.523,0,0,1-609.443,409Zm14.623-.714a.979.979,0,0,1-.117.549.428.428,0,0,1-.375.165h-4.432a.428.428,0,0,1-.375-.165.978.978,0,0,1-.117-.549v-5.343q0-.341.306-.341h3.01a2.08,2.08,0,0,1,1.589.545,2.3,2.3,0,0,1,.51,1.625Zm-1.056.024c.092,0,.138-.078.138-.234v-3.3a1.628,1.628,0,0,0-.321-1.07,1.334,1.334,0,0,0-1.082-.386h-2.075c-.064,0-.1.04-.1.12v4.641q0,.234.144.234Zm8.545-2.488a4.2,4.2,0,0,1-.165,1.169,2.837,2.837,0,0,1-.534,1.019,2.66,2.66,0,0,1-.945.72,3.288,3.288,0,0,1-1.4.269h-.234a.375.375,0,0,1-.12-.312.377.377,0,0,1,.12-.312h.222a2.225,2.225,0,0,0,.992-.2,1.815,1.815,0,0,0,.651-.531,2.088,2.088,0,0,0,.36-.78,4.03,4.03,0,0,0,.108-.95V403.6a.6.6,0,0,0-.03-.192.114.114,0,0,0-.114-.089h-3.185q-.377,0-.377-.5v-2.333a.616.616,0,0,1,.456-.174.657.657,0,0,1,.467.174v1.937q0,.187.156.186h2.962q.611,0,.611.714Zm10.554-.1a4.07,4.07,0,0,1-.237,1.424,3.086,3.086,0,0,1-.681,1.095,3.057,3.057,0,0,1-1.083.708,3.889,3.889,0,0,1-1.436.251,3.414,3.414,0,0,1-2.53-.824,3.3,3.3,0,0,1-.81-2.407v-3.214a.292.292,0,0,1,.183-.114,1.1,1.1,0,0,1,.288-.036,1.132,1.132,0,0,1,.291.036.245.245,0,0,1,.174.114v3.238a2.868,2.868,0,0,0,.539,1.885,2.319,2.319,0,0,0,1.865.645,2.348,2.348,0,0,0,1.886-.725,3.045,3.045,0,0,0,.62-2.039v-3.016a.241.241,0,0,1,.171-.114,1.144,1.144,0,0,1,.294-.036,1.145,1.145,0,0,1,.294.036.241.241,0,0,1,.171.114Zm-2.98,2.075a.464.464,0,0,1-.195.12.765.765,0,0,1-.249.042.966.966,0,0,1-.231-.03.413.413,0,0,1-.213-.132v-5.043a.312.312,0,0,1,.177-.114.919.919,0,0,1,.264-.036.92.92,0,0,1,.264.036.345.345,0,0,1,.183.114Zm7.727,1.085a.428.428,0,0,1-.195.09,1.149,1.149,0,0,1-.264.03,1.156,1.156,0,0,1-.264-.03.48.48,0,0,1-.2-.09v-6.14a.783.783,0,0,1,.456-.138.648.648,0,0,1,.467.138Zm9.453-2.015a2.673,2.673,0,0,1-.189,1.061,1.874,1.874,0,0,1-.51.707,1.952,1.952,0,0,1-.732.387,3.112,3.112,0,0,1-.854.117,2.25,2.25,0,0,1-.231-.015l-.276-.033a2.423,2.423,0,0,1-.264-.048,1.139,1.139,0,0,1-.2-.066.471.471,0,0,1-.09-.345.7.7,0,0,1,.114-.345,1.769,1.769,0,0,0,.39.144,1.749,1.749,0,0,0,.426.054,1.543,1.543,0,0,0,.48-.087,1.48,1.48,0,0,0,.485-.27,1.42,1.42,0,0,0,.369-.483,1.651,1.651,0,0,0,.147-.732v-2.458a1.276,1.276,0,0,0-.276-.917.977.977,0,0,0-.732-.282.933.933,0,0,0-.606.177,1.613,1.613,0,0,0-.4.585l-2.17,4.863a.5.5,0,0,1-.234.1,1.5,1.5,0,0,1-.3.03,1.132,1.132,0,0,1-.27-.03.221.221,0,0,1-.159-.1l1.595-3.514a.642.642,0,0,1-.291-.141.89.89,0,0,1-.225-.255l-1.139-2.231a.275.275,0,0,1,.153-.09,1.245,1.245,0,0,1,.264-.048,1.143,1.143,0,0,1,.306.018.813.813,0,0,1,.3.12l1.031,2.1.408-.96a2.372,2.372,0,0,1,.753-1.049,1.966,1.966,0,0,1,1.124-.288,2.135,2.135,0,0,1,.692.111,1.558,1.558,0,0,1,.573.342,1.639,1.639,0,0,1,.393.593,2.269,2.269,0,0,1,.147.854Zm8.946,2.015a.431.431,0,0,1-.195.09,1.177,1.177,0,0,1-.27.03,1.176,1.176,0,0,1-.269-.03.48.48,0,0,1-.2-.09v-3.664a2,2,0,0,0-.557-1.6,2.346,2.346,0,0,0-1.565-.474,4.235,4.235,0,0,0-1.217.165,3.3,3.3,0,0,0-.869.375.571.571,0,0,1-.126-.354.567.567,0,0,1,.126-.4,3.461,3.461,0,0,1,.894-.315,6.5,6.5,0,0,1,1.451-.135,3,3,0,0,1,2.093.651,2.676,2.676,0,0,1,.707,2.06Zm-4.251,0a.479.479,0,0,1-.2.09,1.148,1.148,0,0,1-.264.03,1.074,1.074,0,0,1-.258-.03.531.531,0,0,1-.2-.09v-3.712a.666.666,0,0,1,.2-.123.652.652,0,0,1,.251-.051.79.79,0,0,1,.258.045.557.557,0,0,1,.213.129Zm19.182.12h-5.553a.614.614,0,0,1-.09-.357.624.624,0,0,1,.09-.332h4.054a1,1,0,0,1-.126-.486c0-.184-.006-.366-.006-.546v-1.973a3.142,3.142,0,0,0-.105-.83,1.686,1.686,0,0,0-.339-.663,1.627,1.627,0,0,0-.608-.438,2.269,2.269,0,0,0-.9-.162,4.343,4.343,0,0,0-1.007.117,2.666,2.666,0,0,0-.774.291.53.53,0,0,1-.12-.323.6.6,0,0,1,.12-.426,2.978,2.978,0,0,1,.954-.269,8.532,8.532,0,0,1,1.1-.072,2.513,2.513,0,0,1,1.957.723,2.947,2.947,0,0,1,.657,2.053V407.7a1.723,1.723,0,0,0,.045.465.2.2,0,0,0,.213.147h.444a.6.6,0,0,1,.1.354A.522.522,0,0,1-538.7,409Zm4.246-.12a.431.431,0,0,1-.195.09,1.156,1.156,0,0,1-.264.03,1.149,1.149,0,0,1-.264-.03.48.48,0,0,1-.2-.09v-6.14a.784.784,0,0,1,.456-.138.649.649,0,0,1,.468.138Zm7.717-3.058a4.18,4.18,0,0,1-.165,1.169,2.819,2.819,0,0,1-.534,1.019,2.653,2.653,0,0,1-.944.72,3.289,3.289,0,0,1-1.4.269h-.233a.374.374,0,0,1-.12-.312.375.375,0,0,1,.12-.312h.222a2.227,2.227,0,0,0,.992-.2,1.82,1.82,0,0,0,.651-.531,2.088,2.088,0,0,0,.359-.78,4.033,4.033,0,0,0,.108-.95V403.6a.618.618,0,0,0-.03-.192.114.114,0,0,0-.114-.089h-3.184q-.378,0-.378-.5v-2.333a.616.616,0,0,1,.456-.174.658.658,0,0,1,.468.174v1.937q0,.187.156.186h2.962q.611,0,.611.714Zm4.79.413a.412.412,0,0,1-.207.126.878.878,0,0,1-.27.03,1.022,1.022,0,0,1-.264-.045.381.381,0,0,1-.183-.111v-3.5a.773.773,0,0,1,.474-.138.671.671,0,0,1,.45.138Zm10.643-.516a4.058,4.058,0,0,1-.237,1.424,3.085,3.085,0,0,1-.68,1.095,3.057,3.057,0,0,1-1.083.708,3.889,3.889,0,0,1-1.436.251,3.416,3.416,0,0,1-2.531-.824,3.3,3.3,0,0,1-.809-2.407v-3.214a.29.29,0,0,1,.183-.114,1.1,1.1,0,0,1,.287-.036,1.134,1.134,0,0,1,.291.036.244.244,0,0,1,.174.114v3.238a2.868,2.868,0,0,0,.54,1.885,2.319,2.319,0,0,0,1.865.645,2.346,2.346,0,0,0,1.885-.725,3.042,3.042,0,0,0,.621-2.039v-3.016a.241.241,0,0,1,.171-.114,1.145,1.145,0,0,1,.294-.036,1.145,1.145,0,0,1,.294.036.242.242,0,0,1,.171.114Zm-2.98,2.075a.467.467,0,0,1-.195.12.766.766,0,0,1-.249.042.972.972,0,0,1-.231-.03.41.41,0,0,1-.213-.132v-5.043a.311.311,0,0,1,.177-.114.923.923,0,0,1,.264-.036.923.923,0,0,1,.264.036.345.345,0,0,1,.183.114Zm11.94,1.085a.431.431,0,0,1-.195.09,1.177,1.177,0,0,1-.27.03,1.176,1.176,0,0,1-.269-.03.479.479,0,0,1-.2-.09v-3.664a2,2,0,0,0-.557-1.6,2.346,2.346,0,0,0-1.565-.474,4.235,4.235,0,0,0-1.217.165,3.306,3.306,0,0,0-.869.375.57.57,0,0,1-.126-.354.567.567,0,0,1,.126-.4,3.461,3.461,0,0,1,.894-.315,6.5,6.5,0,0,1,1.451-.135,3,3,0,0,1,2.093.651,2.676,2.676,0,0,1,.707,2.06Zm-4.251,0a.479.479,0,0,1-.2.09,1.149,1.149,0,0,1-.264.03,1.074,1.074,0,0,1-.258-.03.531.531,0,0,1-.2-.09v-3.712a.667.667,0,0,1,.2-.123.652.652,0,0,1,.252-.051.79.79,0,0,1,.258.045.557.557,0,0,1,.213.129Z" transform="translate(-0.66 -54.476)" fill="#b38f5e"/>
    </g>
  </g>
</svg>
