<svg xmlns="http://www.w3.org/2000/svg" width="527.333" height="190.349" viewBox="0 0 527.333 190.349">
  <g id="Group_8835" data-name="Group 8835" transform="translate(702.951 -284.565)">
    <g id="Group_8833" data-name="Group 8833" transform="translate(-702.951 338.384)">
      <path id="Path_24329" data-name="Path 24329" d="M-573.638,364.763a11.628,11.628,0,0,0-3.652-.659,13.818,13.818,0,0,0-3.889.486l-14.395,4.078a8.6,8.6,0,0,0,2.738,2.644,13.445,13.445,0,0,0,3.713,1.568,16.021,16.021,0,0,0,4.17.5,15.542,15.542,0,0,0,4.1-.577l.021.028,12.892-3.626a10.549,10.549,0,0,0-2.5-2.708,11.8,11.8,0,0,0-3.2-1.73" transform="translate(745.477 -306.884)" fill="#fff"/>
      <path id="Path_24330" data-name="Path 24330" d="M-585.318,402.607c0-.787-.226-1.125-1.125-1.125l-38.648-.169v-30.94l37.748-.169a.949.949,0,0,0,.958-.956V362.1c0-.843-.283-1.125-1.182-1.125h-37.523V332.4l38.873-.112a.938.938,0,0,0,.9-.956v-7.2c0-.845-.338-1.014-1.238-1.014h-47.816c-.733,0-1.125.563-1.125,1.463v85.059a1.155,1.155,0,0,0,1.125,1.014h48.154a.938.938,0,0,0,.9-.956Zm-67.9-21.827c0-16.2-9.733-20.815-21.1-20.928l-9.228-.112c-4.95-.056-9.845-2.419-9.845-10.632v-4.95c0-9,5.738-11.533,10.97-11.533l23.515-.113c.9,0,.956-.507.956-1.35V324.41a1.231,1.231,0,0,0-1.237-1.012h-23.684c-10.014,0-20.085,4.557-20.085,19.521v8.664c0,16.933,10.916,17.552,19.859,17.72l7.876.113c6.189.056,11.308,4.781,11.308,14.57v4.444c0,9.171-4.614,12.883-10.914,12.883l-25.316.113a1.079,1.079,0,0,0-1.237,1.238v6.919a1.179,1.179,0,0,0,1.125,1.069h25.821c13.222,0,21.21-6.526,21.21-21.771Z" transform="translate(702.951 -323.116)" fill="#fff"/>
      <path id="Path_24331" data-name="Path 24331" d="M-540.213,408.964l-27.622-83.934c-.674-1.913-.9-1.913-2.25-1.913h-12.1c-1.35,0-1.631,0-2.193,1.913l-26.553,83.934c-.338.956-.394,1.688.45,1.688h9.113c1.013,0,1.519-1.575,1.744-2.306,0,0,22.447-72.4,22.447-73.865h2.082c0,1.519,22.446,73.865,22.446,73.865.226.674.845,2.306,1.745,2.306h10.239c.843,0,.73-.732.45-1.688" transform="translate(739.305 -323.116)" fill="#fff"/>
      <path id="Path_24332" data-name="Path 24332" d="M-451.135,348.207c0-19.634-8.382-25.091-23.121-25.091h-30.772c-.789,0-.845.563-.845,1.463v84.61c0,.843.225,1.463.956,1.463h8.944c.732,0,1.125-.62,1.125-1.463V379.2h20.59c13.332,0,23.121-8.1,23.121-22.9Zm-10.632,8.382c0,10.8-7.819,13.839-13.107,13.839h-19.972V331.611h19.634c6.3,0,13.445,4.05,13.445,15.246Z" transform="translate(781.003 -323.116)" fill="#fff"/>
      <path id="Path_24333" data-name="Path 24333" d="M-291.346,403.957c0-1.069-.394-1.406-.787-1.406l-1.857-.169c-1.688-.169-2.7-.113-5.513-3.825L-326,364.014l34.372-39.717a4.389,4.389,0,0,0-.505-1.181h-9.9a2.145,2.145,0,0,0-1.575.787l-33.3,39.155c-.956,1.125-1.857.732-1.857-.563V324.579c0-.9-.281-1.463-1.012-1.463h-8.27c-.732,0-1.125.563-1.125,1.463v84.61c0,1.406.338,1.462,1.238,1.462h8.382c.732,0,.787-.618.787-1.462V368.853c0-1.238.676-1.688,1.744-.338l31.222,41.348a1.676,1.676,0,0,0,1.407.787h12.1a1.083,1.083,0,0,0,.956-1.012Zm-66.583,0c0-1.069-.394-1.406-.787-1.406l-1.857-.169c-1.686-.169-2.869-.113-5.68-3.825l-17.328-22.5c18.4-.845,23.628-12.714,23.628-24.191v-3.656c0-19.634-10.408-25.091-24.191-25.091h-28.3c-.732,0-1.125.563-1.125,1.463v84.61c0,.843-.057,1.462.73,1.462h9.451c.732,0,.789-.618.789-1.462V372.227c0-1.406.956-1.406,1.744-.336l27.847,37.972a1.7,1.7,0,0,0,1.463.787h12.656a1.083,1.083,0,0,0,.956-1.012ZM-370.7,352.82c0,10.857-6.638,14.964-13,14.964h-18.9V332.06h18.565c6.356,0,13.332,4.051,13.332,15.415Z" transform="translate(817.559 -323.116)" fill="#fff"/>
      <path id="Path_24334" data-name="Path 24334" d="M-433.9,364.763a11.629,11.629,0,0,0-3.652-.659,13.818,13.818,0,0,0-3.889.486l-14.395,4.078a8.6,8.6,0,0,0,2.738,2.644,13.445,13.445,0,0,0,3.713,1.568,16.021,16.021,0,0,0,4.17.5,15.542,15.542,0,0,0,4.1-.577l.021.028L-428.2,369.2a10.548,10.548,0,0,0-2.5-2.708,11.8,11.8,0,0,0-3.2-1.73" transform="translate(800.817 -306.884)" fill="#fff"/>
      <path id="Path_24335" data-name="Path 24335" d="M-399.809,408.964l-27.622-83.934c-.674-1.913-.9-1.913-2.25-1.913h-12.1c-1.35,0-1.631,0-2.193,1.913l-26.553,83.934c-.338.956-.394,1.688.45,1.688h9.113c1.014,0,1.519-1.575,1.744-2.306,0,0,22.447-72.4,22.447-73.865h2.081c0,1.519,22.446,73.865,22.446,73.865.226.674.845,2.306,1.745,2.306h10.239c.843,0,.73-.732.45-1.688" transform="translate(794.911 -323.116)" fill="#fff"/>
    </g>
    <path id="Path_24336" data-name="Path 24336" d="M-694.409,303.078a2.032,2.032,0,0,1-1.015.618,4.252,4.252,0,0,1-1.325.147,4.931,4.931,0,0,1-1.3-.221,1.867,1.867,0,0,1-.9-.544V285.919a3.8,3.8,0,0,1,2.326-.677,3.3,3.3,0,0,1,2.207.677Zm38.925,12.98a1.885,1.885,0,0,1-.9.441,5.614,5.614,0,0,1-1.325.147,5.991,5.991,0,0,1-1.354-.147,1.91,1.91,0,0,1-.927-.441v-19.9a12.7,12.7,0,0,0-.338-3.062,5.862,5.862,0,0,0-1.118-2.31,5.268,5.268,0,0,0-2.047-1.5,7.894,7.894,0,0,0-3.119-.544H-674.2a.75.75,0,0,0-.677.383,2.588,2.588,0,0,0-.324.956,7.968,7.968,0,0,0-.088,1.208v16.79q0,4.71-2.236,6.755a8.77,8.77,0,0,1-6.151,2.045,8.915,8.915,0,0,1-1.664-.177,3.4,3.4,0,0,1-1.4-.529,2.108,2.108,0,0,1-.412-1.914,2.723,2.723,0,0,1,.765-1.471,5.608,5.608,0,0,0,1.1.634,3.083,3.083,0,0,0,1.251.279,3.831,3.831,0,0,0,3.149-1.3,6.78,6.78,0,0,0,1.058-4.268V294.4q0-.471.031-1.192a10.222,10.222,0,0,1,.176-1.5,7.555,7.555,0,0,1,.486-1.575,4.321,4.321,0,0,1,.927-1.383h-5.357a1.6,1.6,0,0,1-.47-.692,3.451,3.451,0,0,1-.221-.97,2.158,2.158,0,0,1,.147-1,2.421,2.421,0,0,1,.544-.839h17.953q4.885,0,7.505,2.5t2.62,7.8Zm38.372-15.336a18.024,18.024,0,0,1-1.206,6.638,16.288,16.288,0,0,1-3.325,5.312,15.1,15.1,0,0,1-5.063,3.5,16.149,16.149,0,0,1-6.446,1.265,23.536,23.536,0,0,1-6.99-.941,17.116,17.116,0,0,1-4.724-2.149,3.5,3.5,0,0,1-.558-1.943,2.309,2.309,0,0,1,.706-1.854,13.541,13.541,0,0,0,4.385,2.65,15.369,15.369,0,0,0,5.622,1.029,13.446,13.446,0,0,0,5.386-1.029,11.681,11.681,0,0,0,4.032-2.826,12.389,12.389,0,0,0,2.531-4.268,15.9,15.9,0,0,0,.884-5.387,17.392,17.392,0,0,0-.722-5.121,12.064,12.064,0,0,0-2.089-4.061,9.955,9.955,0,0,0-3.385-2.708,10.09,10.09,0,0,0-4.547-1,11.991,11.991,0,0,0-4.062.634,8.807,8.807,0,0,0-2.972,1.721,7.738,7.738,0,0,0-1.869,2.531,7.259,7.259,0,0,0-.662,3.061,5.937,5.937,0,0,0,.691,2.943,6.483,6.483,0,0,0,1.766,2.045,7.494,7.494,0,0,0,2.414,1.206,9.323,9.323,0,0,0,2.664.4,8.27,8.27,0,0,0,2.428-.427,13.072,13.072,0,0,0,2.252-.9,2,2,0,0,1,.677,1.457,2.169,2.169,0,0,1-.618,1.663,7,7,0,0,1-2.428,1.03,12.034,12.034,0,0,1-2.988.412,14.856,14.856,0,0,1-4.223-.6,11.155,11.155,0,0,1-3.635-1.811,9.342,9.342,0,0,1-2.56-2.972,8.411,8.411,0,0,1-.972-4.12,11.653,11.653,0,0,1,.839-4.386,9.925,9.925,0,0,1,2.59-3.679,12.873,12.873,0,0,1,4.4-2.531,18.731,18.731,0,0,1,6.27-.942,16.644,16.644,0,0,1,6.372,1.177,13.973,13.973,0,0,1,4.886,3.3,14.9,14.9,0,0,1,3.134,5.091A18.6,18.6,0,0,1-617.113,300.723Zm30.192,15.336a2.1,2.1,0,0,1-.9.47,4.792,4.792,0,0,1-1.34.176,6.056,6.056,0,0,1-1.368-.147,1.652,1.652,0,0,1-.927-.5V298.752a11.607,11.607,0,0,0-.722-4.106,9.881,9.881,0,0,0-2.045-3.341,9.568,9.568,0,0,0-3.222-2.236,10.416,10.416,0,0,0-4.2-.825,15.851,15.851,0,0,0-4.547.6,18.524,18.524,0,0,0-3.577,1.456,2.09,2.09,0,0,1-.706-1.8,2.643,2.643,0,0,1,.706-1.883,17.338,17.338,0,0,1,4.15-1.266,28.422,28.422,0,0,1,5.3-.47,14.514,14.514,0,0,1,5.327.956,12.184,12.184,0,0,1,4.223,2.738,12.818,12.818,0,0,1,2.812,4.342,15.532,15.532,0,0,1,1.03,5.827Zm34.4-30.139a27.8,27.8,0,0,1-.632,6.254,18.792,18.792,0,0,1-1.752,4.767,14.736,14.736,0,0,1-2.707,3.577A18.225,18.225,0,0,1-561.2,303.2l7.534,10.184a2.059,2.059,0,0,1,.4,2.178,1.66,1.66,0,0,1-1.663,1.089h-23.075a1.77,1.77,0,0,1-.736-1.618,2.177,2.177,0,0,1,.736-1.766h18.866l-19.661-27.343a2.111,2.111,0,0,1,1.075-.56,6.768,6.768,0,0,1,1.6-.176,7.555,7.555,0,0,1,1.663.176,2.562,2.562,0,0,1,1.192.56l10.507,15.069a25.231,25.231,0,0,0,2.62-2.59,9.881,9.881,0,0,0,1.692-2.855,15.847,15.847,0,0,0,.9-3.914,51.341,51.341,0,0,0,.265-5.71,2.069,2.069,0,0,1,1.015-.56,5.421,5.421,0,0,1,1.4-.176,5.109,5.109,0,0,1,1.37.176A2.065,2.065,0,0,1-552.522,285.919Z" transform="translate(1.588)" fill="#fff"/>
    <g id="Group_8834" data-name="Group 8834" transform="translate(-494.188 358.682)">
      <path id="Path_24337" data-name="Path 24337" d="M-510.209,389.111l9.9-12.972a.691.691,0,0,0-.493-1.124l-6.006-.043c-.9,0-.9.3-1.344.864l-6.184,8.043-11.831-14.96,2.555-1.989c5.288-4.109,6.767-8.346,6.767-13.015v-4.929c0-8.216-3.137-11.329-10.71-11.329h-4.481c-9.232,0-11.608,4.973-11.608,11.718v4.843c0,4.843.852,6.616,7.081,14.182l-8.47,7.35c-6.857,6.01-8.38,11.372-8.38,15.955v3.07c0,7.913,5.288,10.118,11.607,10.118h14.879c3.451,0,5.288-1.039,7.8-4.282l4.124-5.318,6.811,8.863c.4.606.628.736,1.524.736h7.349a.592.592,0,0,0,.4-1ZM-523.788,354c0,4.626-1.255,5.794-6.409,9.772l-2.555-3.027c-1.927-2.249-3.989-5.1-3.989-8.3v-2.81c0-3.243,1.21-5.232,5.154-5.232h3c3.54,0,4.8,1.9,4.8,5.492Zm4.571,36.1c-4.8,6.14-6.184,7.437-8.2,7.437h-13.938c-3.046,0-4.481-.216-4.7-5.361-.18-4.886,1.659-7.956,6.318-12.065l7.529-6.614Z" transform="translate(553.412 -337.656)" fill="#fff"/>
    </g>
    <path id="Path_24338" data-name="Path 24338" d="M-687.269,421.356a2.579,2.579,0,0,1-.309,1.448,1.127,1.127,0,0,1-.988.434h-11.688a1.128,1.128,0,0,1-.988-.434,2.582,2.582,0,0,1-.307-1.448v-14.09q0-.9.806-.9h7.939a5.486,5.486,0,0,1,4.191,1.438,6.075,6.075,0,0,1,1.344,4.286Zm-2.784.064c.243,0,.363-.205.363-.617v-8.714a4.3,4.3,0,0,0-.846-2.823,3.519,3.519,0,0,0-2.854-1.019h-5.473c-.169,0-.253.1-.253.316V420.8q0,.618.38.617Zm15.242-5.472a1.076,1.076,0,0,1-.544.332,2.317,2.317,0,0,1-.712.08,2.7,2.7,0,0,1-.7-.119.994.994,0,0,1-.482-.293v-9.219a2.036,2.036,0,0,1,1.249-.363,1.77,1.77,0,0,1,1.185.363Zm20.71-1.09a11.028,11.028,0,0,1-.436,3.084,7.481,7.481,0,0,1-1.407,2.687,7,7,0,0,1-2.491,1.9,8.678,8.678,0,0,1-3.7.711h-.617a.99.99,0,0,1-.315-.822.993.993,0,0,1,.315-.822h.585a5.864,5.864,0,0,0,2.618-.521,4.787,4.787,0,0,0,1.716-1.4,5.508,5.508,0,0,0,.949-2.056,10.635,10.635,0,0,0,.285-2.506v-6.12a1.59,1.59,0,0,0-.08-.507.3.3,0,0,0-.3-.236h-8.4q-1,0-1-1.329v-6.152a1.625,1.625,0,0,1,1.2-.458,1.736,1.736,0,0,1,1.234.458v5.108q0,.492.41.491h7.812q1.615,0,1.614,1.882Zm40.509-1.266a9.107,9.107,0,0,1-.758,3.725,9.761,9.761,0,0,1-2.089,3.028,11.034,11.034,0,0,1-3.123,2.151,12.125,12.125,0,0,1-3.867,1.06.951.951,0,0,1-.332-.807,1.147,1.147,0,0,1,.332-.87,8.973,8.973,0,0,0,2.879-.838,8.468,8.468,0,0,0,2.333-1.668,7.433,7.433,0,0,0,1.573-2.4,8.036,8.036,0,0,0,.57-3.1,6,6,0,0,0-1.344-4.1,4.76,4.76,0,0,0-3.779-1.533h-7.085a.649.649,0,0,1-.317-.356,1.4,1.4,0,0,1-.11-.554,1.526,1.526,0,0,1,.11-.57.794.794,0,0,1,.317-.4h7.86a8.167,8.167,0,0,1,2.7.434,5.77,5.77,0,0,1,2.174,1.344A6.209,6.209,0,0,1-614.1,410.4,8.927,8.927,0,0,1-613.591,413.591Zm-12.146,14.992a1.289,1.289,0,0,1-.561.373,2.068,2.068,0,0,1-.68.119,1.73,1.73,0,0,1-.665-.135,1.342,1.342,0,0,1-.514-.356V411.647a1.649,1.649,0,0,1,1.21-.522,1.386,1.386,0,0,1,1.209.522Zm31.907-5.661a1.1,1.1,0,0,1-.482.253,2.576,2.576,0,0,1-.72.095,3.217,3.217,0,0,1-.734-.08.872.872,0,0,1-.5-.268v-9.3a6.245,6.245,0,0,0-.388-2.206,5.308,5.308,0,0,0-1.1-1.8,5.173,5.173,0,0,0-1.731-1.2,5.616,5.616,0,0,0-2.255-.443,8.556,8.556,0,0,0-2.443.324,9.944,9.944,0,0,0-1.921.783,1.12,1.12,0,0,1-.38-.965,1.415,1.415,0,0,1,.38-1.012,9.32,9.32,0,0,1,2.229-.68,15.19,15.19,0,0,1,2.847-.253,7.773,7.773,0,0,1,2.863.514,6.536,6.536,0,0,1,2.269,1.47,6.9,6.9,0,0,1,1.51,2.333,8.345,8.345,0,0,1,.553,3.131Zm24.439-.237c.126.18.1.311-.064.4a4.049,4.049,0,0,1-.443.127,2.492,2.492,0,0,1-.57.063,4.907,4.907,0,0,1-.941-.095,2.192,2.192,0,0,1-.734-.253l-7.512-9.789a5.667,5.667,0,0,0-1.5,1.684,7.4,7.4,0,0,0-.687,2.048,13.653,13.653,0,0,0-.207,2.68q.017,1.526.017,3.377a1.278,1.278,0,0,1-.546.237,3.327,3.327,0,0,1-.727.078,3.11,3.11,0,0,1-.712-.078.914.914,0,0,1-.483-.237q0-2.119.135-4.111a10.078,10.078,0,0,1,.972-3.733,6.017,6.017,0,0,1,1.171-1.636q.712-.7,1.612-1.448l-4.143-5.266a1.038,1.038,0,0,1,.5-.268,3.267,3.267,0,0,1,.759-.112,3.533,3.533,0,0,1,.861.08,2.64,2.64,0,0,1,.792.3l6.705,8.509q.49-.459.846-.847a5.324,5.324,0,0,0,.6-.775,4.478,4.478,0,0,0,.4-.806,7.778,7.778,0,0,0,.285-.973,8.292,8.292,0,0,0,.253-2.262q-.015-1.265-.015-2.846a2.124,2.124,0,0,1,1.25-.363,2.054,2.054,0,0,1,1.233.363q0,1.122-.015,2.222a10.85,10.85,0,0,1-.205,2.016,9.073,9.073,0,0,1-.5,1.6,7.1,7.1,0,0,1-.759,1.36,7.987,7.987,0,0,1-1.083,1.219,15.828,15.828,0,0,1-1.487,1.2Zm24.008-8a9.675,9.675,0,0,1-.649,3.567,8.746,8.746,0,0,1-1.787,2.854,8.1,8.1,0,0,1-2.719,1.882,8.676,8.676,0,0,1-3.464.68,12.659,12.659,0,0,1-3.757-.505,9.185,9.185,0,0,1-2.538-1.155,1.871,1.871,0,0,1-.3-1.044,1.236,1.236,0,0,1,.38-1,7.265,7.265,0,0,0,2.356,1.423,8.235,8.235,0,0,0,3.02.554,7.2,7.2,0,0,0,2.894-.554,6.28,6.28,0,0,0,2.167-1.517,6.68,6.68,0,0,0,1.361-2.294,8.56,8.56,0,0,0,.473-2.894,9.356,9.356,0,0,0-.387-2.752,6.48,6.48,0,0,0-1.122-2.182,5.345,5.345,0,0,0-1.819-1.455,5.417,5.417,0,0,0-2.443-.539,6.477,6.477,0,0,0-2.183.341,4.721,4.721,0,0,0-1.6.926,4.155,4.155,0,0,0-1,1.36,3.9,3.9,0,0,0-.356,1.645,3.2,3.2,0,0,0,.371,1.582,3.5,3.5,0,0,0,.949,1.1,4.013,4.013,0,0,0,1.3.648,5,5,0,0,0,1.431.214,4.434,4.434,0,0,0,1.305-.229,6.994,6.994,0,0,0,1.209-.482,1.07,1.07,0,0,1,.364.782,1.166,1.166,0,0,1-.332.893,3.761,3.761,0,0,1-1.305.554,6.453,6.453,0,0,1-1.6.222,7.976,7.976,0,0,1-2.27-.325,6,6,0,0,1-1.953-.972,5.03,5.03,0,0,1-1.376-1.6,4.519,4.519,0,0,1-.521-2.213,6.274,6.274,0,0,1,.449-2.357,5.34,5.34,0,0,1,1.392-1.977,6.9,6.9,0,0,1,2.365-1.36,10.057,10.057,0,0,1,3.369-.507,8.941,8.941,0,0,1,3.423.632,7.5,7.5,0,0,1,2.626,1.772,8.012,8.012,0,0,1,1.684,2.736A9.982,9.982,0,0,1-545.383,414.683Zm22.927,8.239a1.129,1.129,0,0,1-.514.237,3.11,3.11,0,0,1-.712.078,3.106,3.106,0,0,1-.711-.078,1.265,1.265,0,0,1-.531-.237V413.26q0-2.974-1.47-4.223a6.187,6.187,0,0,0-4.128-1.249,11.153,11.153,0,0,0-3.21.436,8.714,8.714,0,0,0-2.294.988,1.5,1.5,0,0,1-.332-.934,1.494,1.494,0,0,1,.332-1.043,9.124,9.124,0,0,1,2.357-.831,17.151,17.151,0,0,1,3.827-.356,7.9,7.9,0,0,1,5.52,1.716q1.866,1.717,1.865,5.432Zm-11.212,0a1.265,1.265,0,0,1-.531.237,3.034,3.034,0,0,1-.7.078,2.844,2.844,0,0,1-.68-.078,1.4,1.4,0,0,1-.531-.237v-9.789a1.756,1.756,0,0,1,.531-.324,1.725,1.725,0,0,1,.665-.135,2.082,2.082,0,0,1,.68.119,1.468,1.468,0,0,1,.561.341Zm39.029,5.661a1.137,1.137,0,0,1-.514.237,3.034,3.034,0,0,1-.7.08,3.056,3.056,0,0,1-.7-.08,1.258,1.258,0,0,1-.529-.237V406.728a2.065,2.065,0,0,1,1.2-.363,1.708,1.708,0,0,1,1.233.363ZM-482,415.948a1.08,1.08,0,0,1-.546.332,2.312,2.312,0,0,1-.712.08,2.694,2.694,0,0,1-.7-.119,1,1,0,0,1-.483-.293v-9.219a2.04,2.04,0,0,1,1.25-.363,1.771,1.771,0,0,1,1.187.363Zm23.366,7.29h-14.644a1.618,1.618,0,0,1-.237-.941,1.645,1.645,0,0,1,.237-.877h10.691a2.646,2.646,0,0,1-.332-1.282c-.011-.484-.015-.965-.015-1.439v-5.2a8.34,8.34,0,0,0-.278-2.189,4.446,4.446,0,0,0-.893-1.748,4.3,4.3,0,0,0-1.6-1.154,5.989,5.989,0,0,0-2.38-.427,11.454,11.454,0,0,0-2.657.309,7.029,7.029,0,0,0-2.041.766,1.388,1.388,0,0,1-.316-.853,1.575,1.575,0,0,1,.316-1.124,7.853,7.853,0,0,1,2.514-.711,22.521,22.521,0,0,1,2.894-.19,6.63,6.63,0,0,1,5.164,1.906,7.772,7.772,0,0,1,1.731,5.415v6.31a4.6,4.6,0,0,0,.119,1.226.527.527,0,0,0,.563.388h1.17a1.6,1.6,0,0,1,.253.933A1.378,1.378,0,0,1-458.635,423.238Zm38.567-1.882a2.58,2.58,0,0,1-.309,1.448,1.128,1.128,0,0,1-.988.434h-11.688a1.128,1.128,0,0,1-.988-.434,2.58,2.58,0,0,1-.309-1.448v-14.09q0-.9.807-.9h7.939a5.486,5.486,0,0,1,4.191,1.438,6.075,6.075,0,0,1,1.344,4.286Zm-2.784.064c.243,0,.363-.205.363-.617v-8.714a4.294,4.294,0,0,0-.846-2.823,3.519,3.519,0,0,0-2.854-1.019h-5.472c-.169,0-.253.1-.253.316V420.8q0,.618.38.617Zm22.536-6.563a11.074,11.074,0,0,1-.434,3.084,7.479,7.479,0,0,1-1.407,2.687,7.016,7.016,0,0,1-2.492,1.9,8.671,8.671,0,0,1-3.7.711h-.617a.99.99,0,0,1-.317-.822.994.994,0,0,1,.317-.822h.585a5.869,5.869,0,0,0,2.618-.521,4.787,4.787,0,0,0,1.716-1.4,5.5,5.5,0,0,0,.949-2.056,10.632,10.632,0,0,0,.285-2.506v-6.12a1.59,1.59,0,0,0-.08-.507.3.3,0,0,0-.3-.236h-8.4q-.995,0-1-1.329v-6.152a1.625,1.625,0,0,1,1.2-.458,1.732,1.732,0,0,1,1.233.458v5.108q0,.492.412.491h7.812q1.612,0,1.612,1.882Zm27.836-.269a10.736,10.736,0,0,1-.624,3.755,8.139,8.139,0,0,1-1.8,2.887,8.063,8.063,0,0,1-2.855,1.866,10.256,10.256,0,0,1-3.788.663q-4.538,0-6.673-2.174t-2.136-6.349V406.76a.77.77,0,0,1,.483-.3,2.9,2.9,0,0,1,.759-.095,2.987,2.987,0,0,1,.766.095.646.646,0,0,1,.459.3v8.54a7.565,7.565,0,0,0,1.423,4.973q1.424,1.7,4.918,1.7a6.193,6.193,0,0,0,4.974-1.913,8.03,8.03,0,0,0,1.636-5.378v-7.955a.636.636,0,0,1,.451-.3,3.021,3.021,0,0,1,.775-.095,3.022,3.022,0,0,1,.775.095.636.636,0,0,1,.451.3Zm-7.86,5.472a1.224,1.224,0,0,1-.514.316,2.017,2.017,0,0,1-.656.11,2.546,2.546,0,0,1-.609-.078,1.09,1.09,0,0,1-.563-.348v-13.3a.824.824,0,0,1,.468-.3,2.426,2.426,0,0,1,.7-.095,2.426,2.426,0,0,1,.7.095.909.909,0,0,1,.483.3Zm20.378,2.862a1.13,1.13,0,0,1-.514.237,3.034,3.034,0,0,1-.7.078,3.054,3.054,0,0,1-.7-.078,1.266,1.266,0,0,1-.529-.237V406.728a2.065,2.065,0,0,1,1.2-.363,1.708,1.708,0,0,1,1.233.363Zm24.931-5.313a7.049,7.049,0,0,1-.5,2.8,4.943,4.943,0,0,1-1.344,1.865,5.149,5.149,0,0,1-1.929,1.021,8.207,8.207,0,0,1-2.253.308,5.923,5.923,0,0,1-.609-.039q-.356-.04-.729-.088a6.383,6.383,0,0,1-.7-.126,3,3,0,0,1-.529-.174,1.241,1.241,0,0,1-.237-.909,1.835,1.835,0,0,1,.3-.91,4.674,4.674,0,0,0,1.028.38,4.617,4.617,0,0,0,1.122.142,4.07,4.07,0,0,0,1.266-.229,3.9,3.9,0,0,0,1.28-.712,3.745,3.745,0,0,0,.973-1.273,4.352,4.352,0,0,0,.387-1.929v-6.483a3.366,3.366,0,0,0-.727-2.419,2.577,2.577,0,0,0-1.929-.744,2.46,2.46,0,0,0-1.6.466,4.254,4.254,0,0,0-1.06,1.543l-5.724,12.825a1.326,1.326,0,0,1-.617.268,3.967,3.967,0,0,1-.783.08,2.989,2.989,0,0,1-.712-.08.581.581,0,0,1-.419-.268l4.206-9.267a1.693,1.693,0,0,1-.766-.371,2.346,2.346,0,0,1-.593-.673l-3-5.883a.725.725,0,0,1,.4-.237,3.284,3.284,0,0,1,.7-.126,3.009,3.009,0,0,1,.807.047,2.142,2.142,0,0,1,.783.316l2.719,5.535,1.075-2.531a6.256,6.256,0,0,1,1.985-2.767,5.186,5.186,0,0,1,2.965-.759,5.63,5.63,0,0,1,1.826.293,4.108,4.108,0,0,1,1.51.9,4.327,4.327,0,0,1,1.036,1.565,5.984,5.984,0,0,1,.388,2.253Zm23.593,5.313a1.136,1.136,0,0,1-.514.237,3.11,3.11,0,0,1-.712.078,3.106,3.106,0,0,1-.711-.078,1.264,1.264,0,0,1-.531-.237V413.26q0-2.974-1.47-4.223a6.187,6.187,0,0,0-4.128-1.249,11.169,11.169,0,0,0-3.211.436,8.7,8.7,0,0,0-2.292.988,1.5,1.5,0,0,1-.332-.934,1.494,1.494,0,0,1,.332-1.043,9.122,9.122,0,0,1,2.357-.831,17.152,17.152,0,0,1,3.827-.356,7.9,7.9,0,0,1,5.52,1.716q1.866,1.717,1.865,5.432Zm-11.212,0a1.264,1.264,0,0,1-.531.237,3.034,3.034,0,0,1-.7.078,2.835,2.835,0,0,1-.68-.078,1.4,1.4,0,0,1-.531-.237v-9.789a1.755,1.755,0,0,1,.531-.324,1.718,1.718,0,0,1,.663-.135,2.083,2.083,0,0,1,.681.119,1.467,1.467,0,0,1,.561.341Zm50.59.316H-286.7a1.618,1.618,0,0,1-.237-.941,1.645,1.645,0,0,1,.237-.877h10.691a2.648,2.648,0,0,1-.332-1.282c-.011-.484-.015-.965-.015-1.439v-5.2a8.284,8.284,0,0,0-.278-2.189,4.448,4.448,0,0,0-.893-1.748,4.292,4.292,0,0,0-1.6-1.154,5.984,5.984,0,0,0-2.38-.427,11.453,11.453,0,0,0-2.657.309,7.03,7.03,0,0,0-2.041.766,1.4,1.4,0,0,1-.315-.853,1.582,1.582,0,0,1,.315-1.124,7.852,7.852,0,0,1,2.516-.711,22.488,22.488,0,0,1,2.894-.19,6.629,6.629,0,0,1,5.163,1.906,7.772,7.772,0,0,1,1.732,5.415v6.31a4.542,4.542,0,0,0,.119,1.226.524.524,0,0,0,.561.388h1.17a1.6,1.6,0,0,1,.253.933A1.378,1.378,0,0,1-272.059,423.238Zm11.2-.316a1.136,1.136,0,0,1-.514.237,3.055,3.055,0,0,1-.7.078,3.034,3.034,0,0,1-.7-.078,1.264,1.264,0,0,1-.53-.237V406.728a2.065,2.065,0,0,1,1.2-.363,1.712,1.712,0,0,1,1.234.363Zm20.353-8.065a11.024,11.024,0,0,1-.436,3.084,7.437,7.437,0,0,1-1.407,2.687,7,7,0,0,1-2.491,1.9,8.673,8.673,0,0,1-3.7.711h-.616a.986.986,0,0,1-.317-.822.989.989,0,0,1,.317-.822h.585a5.873,5.873,0,0,0,2.618-.521,4.8,4.8,0,0,0,1.716-1.4,5.5,5.5,0,0,0,.948-2.056,10.632,10.632,0,0,0,.285-2.506v-6.12a1.632,1.632,0,0,0-.078-.507.3.3,0,0,0-.3-.236h-8.4q-1,0-1-1.329v-6.152a1.625,1.625,0,0,1,1.2-.458,1.736,1.736,0,0,1,1.234.458v5.108q0,.492.412.491h7.812q1.612,0,1.612,1.882Zm12.634,1.09a1.086,1.086,0,0,1-.546.332,2.316,2.316,0,0,1-.712.08,2.694,2.694,0,0,1-.7-.119,1,1,0,0,1-.483-.293v-9.219a2.039,2.039,0,0,1,1.249-.363,1.771,1.771,0,0,1,1.187.363Zm28.069-1.36a10.7,10.7,0,0,1-.625,3.755,8.134,8.134,0,0,1-1.794,2.887,8.063,8.063,0,0,1-2.855,1.866,10.257,10.257,0,0,1-3.788.663q-4.54,0-6.674-2.174t-2.135-6.349V406.76a.766.766,0,0,1,.483-.3,2.892,2.892,0,0,1,.758-.095,2.99,2.99,0,0,1,.768.095.642.642,0,0,1,.458.3v8.54a7.565,7.565,0,0,0,1.424,4.973q1.422,1.7,4.918,1.7a6.187,6.187,0,0,0,4.973-1.913,8.023,8.023,0,0,0,1.638-5.378v-7.955a.636.636,0,0,1,.451-.3,3.021,3.021,0,0,1,.775-.095,3.021,3.021,0,0,1,.775.095.639.639,0,0,1,.451.3Zm-7.86,5.472a1.233,1.233,0,0,1-.514.316,2.019,2.019,0,0,1-.658.11,2.564,2.564,0,0,1-.609-.078,1.08,1.08,0,0,1-.561-.348v-13.3a.82.82,0,0,1,.466-.3,2.436,2.436,0,0,1,.7-.095,2.433,2.433,0,0,1,.7.095.909.909,0,0,1,.483.3Zm31.491,2.862a1.136,1.136,0,0,1-.514.237,3.11,3.11,0,0,1-.712.078,3.107,3.107,0,0,1-.711-.078,1.265,1.265,0,0,1-.53-.237V413.26q0-2.974-1.47-4.223a6.187,6.187,0,0,0-4.128-1.249,11.169,11.169,0,0,0-3.211.436,8.722,8.722,0,0,0-2.292.988,1.5,1.5,0,0,1-.332-.934,1.5,1.5,0,0,1,.332-1.043,9.122,9.122,0,0,1,2.357-.831,17.152,17.152,0,0,1,3.827-.356,7.9,7.9,0,0,1,5.52,1.716q1.866,1.717,1.865,5.432Zm-11.212,0a1.265,1.265,0,0,1-.531.237,3.034,3.034,0,0,1-.7.078,2.836,2.836,0,0,1-.68-.078,1.4,1.4,0,0,1-.53-.237v-9.789a1.757,1.757,0,0,1,.53-.324,1.72,1.72,0,0,1,.665-.135,2.082,2.082,0,0,1,.68.119,1.468,1.468,0,0,1,.561.341Z" transform="translate(0.555 45.839)" fill="#fff"/>
  </g>
</svg>
