<svg xmlns="http://www.w3.org/2000/svg" width="90.278" height="90.42" viewBox="0 0 90.278 90.42">
  <g id="Group_3455" data-name="Group 3455" transform="translate(1.5 1.5)">
    <rect id="Rectangle_1894" data-name="Rectangle 1894" width="23" height="18" transform="translate(44.316 35.281)" fill="#26c2e7"/>
    <g id="Group_3415" data-name="Group 3415">
      <line id="Line_454" data-name="Line 454" x2="7.995" y2="14.187" transform="translate(58.818 73.997)" fill="none" stroke="#fff" stroke-miterlimit="10" stroke-width="3"/>
      <line id="Line_455" data-name="Line 455" x1="7.995" y2="14.187" transform="translate(20.465 73.997)" fill="none" stroke="#fff" stroke-miterlimit="10" stroke-width="3"/>
      <line id="Line_456" data-name="Line 456" x2="41.742" transform="translate(22.768 83.483)" fill="none" stroke="#fff" stroke-linejoin="round" stroke-width="3"/>
      <path id="Path_3802" data-name="Path 3802" d="M2250.926,2335.36a43.639,43.639,0,1,1,62.7,0" transform="translate(-2238.636 -2261.364)" fill="none" stroke="#fff" stroke-linecap="round" stroke-miterlimit="10" stroke-width="3"/>
      <line id="Line_457" data-name="Line 457" y2="18.974" transform="translate(43.639 34.152)" fill="none" stroke="#fff" stroke-miterlimit="10" stroke-width="3"/>
      <line id="Line_458" data-name="Line 458" x1="7.589" transform="translate(39.844 73.997)" fill="none" stroke="#fff" stroke-miterlimit="10" stroke-width="3"/>
      <line id="Line_459" data-name="Line 459" x1="5.692" transform="translate(24.666 66.407)" fill="none" stroke="#fff" stroke-miterlimit="10" stroke-width="3"/>
      <line id="Line_460" data-name="Line 460" x1="5.692" transform="translate(56.921 66.407)" fill="none" stroke="#fff" stroke-miterlimit="10" stroke-width="3"/>
      <line id="Line_461" data-name="Line 461" x2="49.331" transform="translate(18.974 53.126)" fill="none" stroke="#fff" stroke-miterlimit="10" stroke-width="3"/>
      <g id="Group_3414" data-name="Group 3414" transform="translate(18.974 18.973)">
        <path id="Path_3803" data-name="Path 3803" d="M2359.862,2375h34.152a7.589,7.589,0,0,1,7.589,7.59v43.639a3.8,3.8,0,0,1-3.795,3.795h-11.384l-1.9-7.589h-15.179l-1.9,7.589h-11.384a3.8,3.8,0,0,1-3.795-3.795V2382.59A7.59,7.59,0,0,1,2359.862,2375Z" transform="translate(-2352.273 -2375)" fill="none" stroke="#fff" stroke-linejoin="round" stroke-width="3"/>
        <line id="Line_462" data-name="Line 462" x2="18.974" transform="translate(15.179 7.589)" fill="none" stroke="#fff" stroke-linejoin="round" stroke-width="3"/>
        <line id="Line_463" data-name="Line 463" x2="49.331" transform="translate(0 15.179)" fill="none" stroke="#fff" stroke-linejoin="round" stroke-width="3"/>
      </g>
    </g>
  </g>
</svg>
