<svg xmlns="http://www.w3.org/2000/svg" width="91.033" height="91.033" viewBox="0 0 91.033 91.033">
  <g id="Group_3456" data-name="Group 3456" transform="translate(0.5 0.5)">
    <path id="Path_3812" data-name="Path 3812" d="M9.425,0A9.425,9.425,0,0,1,18.85,9.425V18.85H9.425A9.425,9.425,0,0,1,9.425,0Z" transform="translate(16.797 16.883)" fill="#3fa25c"/>
    <g id="Group_3416" data-name="Group 3416">
      <path id="Path_3805" data-name="Path 3805" d="M4082.466,1791.806l0,0a10.463,10.463,0,0,0-14.794,0l0,0a10.462,10.462,0,0,0,0,14.794l0,0a10.616,10.616,0,0,0,1.539,1.27l.21.142h13.343v-1.652h-12.816a8.992,8.992,0,0,1-1.11-.93,8.811,8.811,0,0,1,12.463-12.458l0,0a9.08,9.08,0,0,1,.93,1.109v45.82a9.1,9.1,0,0,1-.93,1.109l0,0a8.922,8.922,0,0,1-2.178,1.589,8.8,8.8,0,0,1-10.284-1.589h0a8.813,8.813,0,0,1,0-12.461,8.97,8.97,0,0,1,1.108-.929H4080.3v-1.652h-10.886l-.209.143a10.564,10.564,0,0,0-1.538,1.269h0a10.464,10.464,0,0,0,0,14.8l0,0a10.447,10.447,0,0,0,12.212,1.884,10.53,10.53,0,0,0,2.583-1.883v0a10.641,10.641,0,0,0,1.269-1.538l.143-.21v-46.873l-.143-.21A10.615,10.615,0,0,0,4082.466,1791.806Zm-13.631,36.743h0l-.008.009Z" transform="translate(-4047.837 -1771.973)" fill="#fff" stroke="#fff" stroke-width="1"/>
      <path id="Path_3806" data-name="Path 3806" d="M4131.212,2958.854h0l-.023-.023Z" transform="translate(-4111.382 -2888.653)" fill="#fff" stroke="#fff" stroke-width="1"/>
      <path id="Path_3807" data-name="Path 3807" d="M3728.733,2627.9a15.389,15.389,0,0,1-4.2.6h-.018a15.416,15.416,0,0,1-15.408-15.413v-.01a15.346,15.346,0,0,1,2-7.574l.7-1.233H3697.3v1.652h11.748a16.93,16.93,0,0,0-1.589,7.148h0v.045h0a17.062,17.062,0,0,0,16.99,17.033l.037,0h.062a17.046,17.046,0,0,0,4.64-.66,17.328,17.328,0,0,0,2.5-.932v11.75h1.652v-14.51l-1.233.7A15.426,15.426,0,0,1,3728.733,2627.9Z" transform="translate(-3697.296 -2550.27)" fill="#fff" stroke="#fff" stroke-width="1"/>
      <path id="Path_3808" data-name="Path 3808" d="M4881.539,1842.175h0a10.53,10.53,0,0,0,2.582,1.885,10.448,10.448,0,0,0,12.212-1.885l0,0a10.465,10.465,0,0,0,0-14.8h0a10.613,10.613,0,0,0-1.539-1.269l-.21-.143H4883.7v1.652h10.357a9.032,9.032,0,0,1,1.11.93l0,0a8.812,8.812,0,0,1,0,12.462l-.022.023.024-.024a8.8,8.8,0,0,1-10.283,1.589,8.864,8.864,0,0,1-2.178-1.589h0a8.86,8.86,0,0,1-.931-1.109v-45.818a8.836,8.836,0,0,1,.931-1.109h0a8.81,8.81,0,1,1,12.459,12.46l0,0a9.024,9.024,0,0,1-1.11.931H4883.7v1.652h10.885l.21-.142a10.691,10.691,0,0,0,1.539-1.27l0,0a10.464,10.464,0,0,0,0-14.794l0,0a10.462,10.462,0,0,0-14.793,0h0a10.464,10.464,0,0,0-1.27,1.538l-.144.21v46.873l.144.211A10.471,10.471,0,0,0,4881.539,1842.175Z" transform="translate(-4826.133 -1771.973)" fill="#fff" stroke="#fff" stroke-width="1"/>
      <path id="Path_3809" data-name="Path 3809" d="M4888.913,1433.243l.061,0,.015,0a15.417,15.417,0,0,1,15.367,15.411v.015a15.329,15.329,0,0,1-2,7.569l-.7,1.232h14.509v-1.652h-11.75a16.919,16.919,0,0,0,1.589-7.137h0v-.03h0a17.069,17.069,0,0,0-17.015-17.06h-.008l-.035,0h-.042a16.962,16.962,0,0,0-7.129,1.589v-11.748h-1.652v14.509l1.232-.7A15.347,15.347,0,0,1,4888.913,1433.243Z" transform="translate(-4826.133 -1421.432)" fill="#fff" stroke="#fff" stroke-width="1"/>
      <path id="Path_3810" data-name="Path 3810" d="M3731.684,1433.18a16.953,16.953,0,0,0-7.145-1.59h-.06a17.066,17.066,0,0,0-17.025,17.054h0v.033h0a16.94,16.94,0,0,0,1.589,7.141H3697.3v1.652H3711.8l-.7-1.232a15.343,15.343,0,0,1-2-7.574v-.007h0v0a15.416,15.416,0,0,1,15.4-15.412l.081,0,.011,0a15.345,15.345,0,0,1,7.5,2l1.233.7v-14.51h-1.652Z" transform="translate(-3697.296 -1421.432)" fill="#fff" stroke="#fff" stroke-width="1"/>
      <path id="Path_3811" data-name="Path 3811" d="M4884.277,2629.485a17.052,17.052,0,0,0,4.6.658l.026,0h.055a17.067,17.067,0,0,0,17.044-17.035h0l0-.017v-.011h0v-.014a16.95,16.95,0,0,0-1.589-7.15h11.748v-1.652h-14.508l.7,1.233a15.349,15.349,0,0,1,2,7.569v.01h0v.006a15.42,15.42,0,0,1-15.413,15.412h-.016a15.621,15.621,0,0,1-7.568-2l-1.232-.7v14.51h1.652v-11.75A17.308,17.308,0,0,0,4884.277,2629.485Z" transform="translate(-4826.133 -2550.27)" fill="#fff" stroke="#fff" stroke-width="1"/>
      <rect id="Rectangle_1882" data-name="Rectangle 1882" width="2.478" height="1.652" transform="translate(87.555 44.191)" fill="#fff" stroke="#fff" stroke-width="1"/>
      <rect id="Rectangle_1883" data-name="Rectangle 1883" width="5.005" height="1.652" transform="translate(27.5 44.191)" fill="#fff" stroke="#fff" stroke-width="1"/>
      <rect id="Rectangle_1884" data-name="Rectangle 1884" width="5.004" height="1.652" transform="translate(57.527 44.191)" fill="#fff" stroke="#fff" stroke-width="1"/>
      <rect id="Rectangle_1885" data-name="Rectangle 1885" width="5.004" height="1.652" transform="translate(72.54 44.191)" fill="#fff" stroke="#fff" stroke-width="1"/>
      <rect id="Rectangle_1886" data-name="Rectangle 1886" width="5.004" height="1.652" transform="translate(12.487 44.191)" fill="#fff" stroke="#fff" stroke-width="1"/>
      <rect id="Rectangle_1887" data-name="Rectangle 1887" width="2.478" height="1.652" transform="translate(0 44.191)" fill="#fff" stroke="#fff" stroke-width="1"/>
      <rect id="Rectangle_1888" data-name="Rectangle 1888" width="1.652" height="2.478" transform="translate(44.19)" fill="#fff" stroke="#fff" stroke-width="1"/>
      <rect id="Rectangle_1889" data-name="Rectangle 1889" width="1.652" height="4.908" transform="translate(44.19 69.558)" fill="#fff" stroke="#fff" stroke-width="1"/>
      <rect id="Rectangle_1890" data-name="Rectangle 1890" width="1.652" height="4.908" transform="translate(44.19 51.562)" fill="#fff" stroke="#fff" stroke-width="1"/>
      <rect id="Rectangle_1891" data-name="Rectangle 1891" width="1.652" height="4.908" transform="translate(44.19 33.564)" fill="#fff" stroke="#fff" stroke-width="1"/>
      <rect id="Rectangle_1892" data-name="Rectangle 1892" width="1.652" height="4.908" transform="translate(44.19 15.567)" fill="#fff" stroke="#fff" stroke-width="1"/>
      <rect id="Rectangle_1893" data-name="Rectangle 1893" width="1.652" height="2.478" transform="translate(44.19 87.555)" fill="#fff" stroke="#fff" stroke-width="1"/>
    </g>
  </g>
</svg>
