<svg id="Group_8092" data-name="Group 8092" xmlns="http://www.w3.org/2000/svg" xmlns:xlink="http://www.w3.org/1999/xlink" width="80.146" height="80.272" viewBox="0 0 80.146 80.272">
  <defs>
    <clipPath id="clip-path">
      <rect id="Rectangle_3283" data-name="Rectangle 3283" width="80.146" height="80.272" fill="#fff"/>
    </clipPath>
  </defs>
  <g id="Group_8091" data-name="Group 8091" clip-path="url(#clip-path)">
    <path id="Path_23049" data-name="Path 23049" d="M163.237,97.545l3.96-.7a60.136,60.136,0,0,1,8.785-.893V80.014a62.492,62.492,0,0,0-10.816,1.1,1.676,1.676,0,0,0-1.315,1.329l-2.544,13.137a1.67,1.67,0,0,0,1.93,1.962" transform="translate(-137.579 -68.257)" fill="#3fa25c"/>
    <path id="Path_23050" data-name="Path 23050" d="M459.664,545.581l.184-.127h-.271Z" transform="translate(-392.049 -465.308)"/>
    <path id="Path_23051" data-name="Path 23051" d="M376.236,410.6a20.98,20.98,0,0,1-3.1,1.385l3.5,5.072h3.457V420.4h-1.156l2.3,3.34H385.1v3.339h-1.562l2.3,3.339h.271l2.566-1.768Z" transform="translate(-318.309 -350.271)" fill="#fff"/>
    <path id="Path_23052" data-name="Path 23052" d="M84.217,545.581l.087-.127h-.271Z" transform="translate(-71.685 -465.308)"/>
    <path id="Path_23053" data-name="Path 23053" d="M70.147,427.091v-3.339h3.864l2.3-3.339H75.156v-3.339h3.457L82.107,412a20.983,20.983,0,0,1-3.1-1.385L66.571,428.662l2.566,1.768h.271l2.3-3.339Z" transform="translate(-56.789 -350.285)" fill="#fff"/>
    <path id="Path_23054" data-name="Path 23054" d="M101.541,503.339h50.306l-2.3-3.339h-45.7Z" transform="translate(-86.621 -426.533)" fill="#fff"/>
    <path id="Path_23055" data-name="Path 23055" d="M432.114,503.339V500H428.25l2.3,3.339Z" transform="translate(-365.326 -426.533)" fill="#fff"/>
    <path id="Path_23056" data-name="Path 23056" d="M90.909,500v3.339h1.562l2.3-3.339Z" transform="translate(-77.551 -426.533)" fill="#fff"/>
    <path id="Path_23057" data-name="Path 23057" d="M132.866,457.885h41.1l-2.3-3.339h-36.5Z" transform="translate(-113.344 -387.757)" fill="#fff"/>
    <path id="Path_23058" data-name="Path 23058" d="M400.382,457.885v-3.339h-3.457l2.3,3.339Z" transform="translate(-338.603 -387.757)" fill="#fff"/>
    <path id="Path_23059" data-name="Path 23059" d="M125,454.546v3.339h1.156l2.3-3.339Z" transform="translate(-106.633 -387.757)" fill="#fff"/>
    <path id="Path_23060" data-name="Path 23060" d="M140,79.962a5.006,5.006,0,0,0,4.442,1.42l3.96-.7a56.611,56.611,0,0,1,19.748,0l5.155.911a4.174,4.174,0,0,0,4.824-4.9L175.35,62.36a5.005,5.005,0,0,0-3.928-3.967,73.832,73.832,0,0,0-26.3,0,5.006,5.006,0,0,0-3.928,3.966L138.649,75.5A5.007,5.007,0,0,0,140,79.962m1.932-3.83,2.544-13.137a1.676,1.676,0,0,1,1.315-1.329,62.478,62.478,0,0,1,10.816-1.1v-.069h3.339v.069a62.464,62.464,0,0,1,10.816,1.1,1.676,1.676,0,0,1,1.315,1.329l2.775,14.329a.835.835,0,0,1-.965.981l-5.155-.911a60.119,60.119,0,0,0-8.785-.893V78.86H156.6V76.5a60.116,60.116,0,0,0-8.785.893l-3.96.7a1.67,1.67,0,0,1-1.93-1.962" transform="translate(-118.198 -48.806)" fill="#fff"/>
    <path id="Path_23061" data-name="Path 23061" d="M263.034,95.822c.557,0,1.113.011,1.669.026V79.91c-1.111-.024-2.228-.024-3.339,0V95.848c.556-.016,1.113-.026,1.67-.026" transform="translate(-222.961 -68.153)" fill="#fff"/>
    <path id="Path_23062" data-name="Path 23062" d="M261.364,188.336V190.7H264.7v-2.359c-.557-.016-1.113-.026-1.67-.026s-1.113.011-1.67.026" transform="translate(-222.961 -160.641)" fill="#fff"/>
    <path id="Path_23063" data-name="Path 23063" d="M264.7,79.614v-.069h-3.339v.069c1.111-.024,2.228-.024,3.339,0" transform="translate(-222.96 -67.857)"/>
    <rect id="Rectangle_3280" data-name="Rectangle 3280" width="3.339" height="3.34" transform="translate(38.403 51.761)" fill="#fff"/>
    <path id="Path_23064" data-name="Path 23064" d="M261.364,375v5.036c.57.016,1.128.025,1.67.025s1.1-.009,1.67-.025V375Z" transform="translate(-222.961 -319.9)" fill="#fff"/>
    <rect id="Rectangle_3281" data-name="Rectangle 3281" width="3.339" height="3.34" transform="translate(45.082 51.761)" fill="#fff"/>
    <path id="Path_23065" data-name="Path 23065" d="M306.819,375v4.857c1.087-.083,2.2-.19,3.339-.321V375Z" transform="translate(-261.737 -319.9)" fill="#fff"/>
    <rect id="Rectangle_3282" data-name="Rectangle 3282" width="3.339" height="3.34" transform="translate(31.724 51.761)" fill="#fff"/>
    <path id="Path_23066" data-name="Path 23066" d="M215.91,375v4.539c1.134.131,2.251.238,3.339.32V375Z" transform="translate(-184.186 -319.9)" fill="#fff"/>
    <path id="Path_23067" data-name="Path 23067" d="M89.418.124a14.991,14.991,0,0,0-8.583,3.216,13.28,13.28,0,0,0-4.329,6.2l-.1-.02-.328,1.638h0L71.189,35.6a23.364,23.364,0,0,0,3.952,18.063,22.317,22.317,0,0,0,7.432,6.667l1.3-1.887,2.75,1.895-.949,1.377a20.983,20.983,0,0,0,4.172,1.006,80.943,80.943,0,0,0,10.583.776,81,81,0,0,0,10.583-.779,20.982,20.982,0,0,0,4.17-1.006l-.947-1.374,2.75-1.895,1.3,1.884a22.313,22.313,0,0,0,7.433-6.668A23.367,23.367,0,0,0,129.669,35.6L124.8,11.245c-.007-.035-.015-.07-.023-.1h0v0a13.243,13.243,0,0,0-4.757-7.807A15.008,15.008,0,0,0,111.44.124h-.02c-.74-.029-3.409-.124-6.7-.124H96.136c-3.289,0-5.958.095-6.7.124ZM123.469,13.1l-.327-1.634ZM96.136,3.338h8.585c3.214,0,5.819.092,6.557.121,5.173.271,9.281,3.618,10.226,8.333v0h0l3.324,16.623.837,4.188,3.273-.655a13.689,13.689,0,0,1-2.35,10.708A20.294,20.294,0,0,1,123,51.723a18.233,18.233,0,0,1-12.433,7.688q-.9.122-1.787.223v2.143h-3.339V59.956c-1.152.088-2.27.148-3.34.179v1.643H98.759V60.135c-1.071-.031-2.189-.09-3.34-.177v1.82H92.081v-2.14q-.888-.1-1.787-.223A18.234,18.234,0,0,1,77.86,51.726a20.287,20.287,0,0,1-3.592-9.068,13.688,13.688,0,0,1-2.349-10.707l3.274.655L79.34,11.874c0-.022.008-.044.012-.066h0v0C80.3,7.083,84.407,3.73,89.579,3.459c.738-.029,3.343-.121,6.557-.121" transform="translate(-60.356 0.001)" fill="#fff"/>
    <path id="Path_23068" data-name="Path 23068" d="M366.69,399.673l.947,1.374a20.971,20.971,0,0,0,3.1-1.385l-1.3-1.884Z" transform="translate(-312.811 -339.331)" fill="#fff"/>
    <path id="Path_23069" data-name="Path 23069" d="M152.5,397.775l-1.3,1.887a20.984,20.984,0,0,0,3.1,1.385l.949-1.377Z" transform="translate(-128.984 -339.328)" fill="#fff"/>
    <path id="Path_23070" data-name="Path 23070" d="M261.364,409.273v1.642H264.7v-1.643c-.571.017-1.129.025-1.67.025s-1.1-.009-1.67-.025" transform="translate(-222.961 -349.137)" fill="#fff"/>
    <path id="Path_23071" data-name="Path 23071" d="M306.819,408.013h3.339V405.87c-1.136.131-2.253.238-3.339.321Z" transform="translate(-261.737 -346.234)" fill="#fff"/>
    <path id="Path_23072" data-name="Path 23072" d="M215.91,408.031h3.339v-1.82c-1.088-.082-2.205-.189-3.339-.32Z" transform="translate(-184.186 -346.252)" fill="#fff"/>
    <path id="Path_23073" data-name="Path 23073" d="M353.7,233.749a54.49,54.49,0,0,1-7.65,1.995l.607,3.284a57.834,57.834,0,0,0,8.12-2.118,13.635,13.635,0,0,0,6.66-4.937,19.465,19.465,0,0,0-.194-6.409l-.729-3.644h0a10.384,10.384,0,0,1-6.813,11.829" transform="translate(-295.199 -189.312)" fill="#fff"/>
    <path id="Path_23074" data-name="Path 23074" d="M445.41,228.172a13.689,13.689,0,0,0,2.35-10.708l-3.273.655.729,3.644a19.46,19.46,0,0,1,.194,6.409" transform="translate(-379.177 -185.511)" fill="#fff"/>
    <path id="Path_23075" data-name="Path 23075" d="M100.318,236.91a57.84,57.84,0,0,0,8.12,2.118l.607-3.284a54.487,54.487,0,0,1-7.65-1.995,10.383,10.383,0,0,1-6.813-11.829h0l-.73,3.651a19.459,19.459,0,0,0-.2,6.4,13.634,13.634,0,0,0,6.661,4.939" transform="translate(-79.746 -189.313)" fill="#fff"/>
    <path id="Path_23076" data-name="Path 23076" d="M79.7,221.768l.73-3.651-3.274-.655a13.688,13.688,0,0,0,2.349,10.707,19.459,19.459,0,0,1,.2-6.4" transform="translate(-65.594 -185.51)" fill="#fff"/>
  </g>
</svg>
