<svg xmlns="http://www.w3.org/2000/svg" width="84.615" height="70.661" viewBox="0 0 84.615 70.661">
  <g id="Group_8113" data-name="Group 8113" transform="translate(-717.748 -5376.748)">
    <g id="Group_8112" data-name="Group 8112" transform="translate(718 5377)">
      <path id="Path_23099" data-name="Path 23099" d="M317.331,727.935c3.517.026,7.206-.076,10.677-.33-4.54-2.5-9.284-4.468-14.027-6.527a13.173,13.173,0,0,0-.065,6.415c.841.764,2.339.3,3.415.442m-1.745,1.647c-2.638.146-3.628-1.267-3.635-3.761-.1-1.395-.182-7.829,2.317-6.457,4.967,2.253,10.113,4.233,14.838,6.973.807.446,1.69,1.564.829,2.38-.867.715-2.1.5-3.145.627-3.729.249-7.469.3-11.2.238" transform="translate(-309.577 -708.516)" fill="#b38f5e" stroke="#b38f5e" stroke-width="0.5"/>
      <path id="Path_23100" data-name="Path 23100" d="M320.316,742.785a141.6,141.6,0,0,1-2.485-16.13.839.839,0,0,1,.832-.832c.767,0,.869.8.9,1.395.481,4.355,1.089,8.88,1.931,13.146.028.943,1.078,2.5-.151,3a.838.838,0,0,1-1.025-.581" transform="translate(-307.346 -706.009)" fill="#b38f5e" stroke="#b38f5e" stroke-width="0.5"/>
      <path id="Path_23101" data-name="Path 23101" d="M329.622,756.493c8.671-.4,17.232-1.966,25.868-2.75,2.971-.214,5.932-.54,8.891-.88,2.385-.339,4.913-.329,7.072-1.482a4.778,4.778,0,0,0,1.716-5.595c-.253-.655-.953-.95-1.337-1.486-5.2-1.855-10.853-2.231-16.275-2.87-9.252-.817-18.547-1.228-27.833-1.332-5.147-.366-12.477.976-13.219,7.129-.441,8.708,8.489,9.468,15.117,9.264m-5.849,1.442c-12.407-.364-15.557-15.612-2.921-18.979,5.194-1.531,52.361.512,53.182,5.162,2.221,2.68.953,7.422-2.121,8.911-2.184,1.052-4.673,1.147-7.04,1.454-3.3.39-6.6.74-9.918.978-10.374.847-20.739,3.386-31.182,2.474" transform="translate(-309.249 -701.248)" fill="#b38f5e" stroke="#b38f5e" stroke-width="0.5"/>
      <path id="Path_23102" data-name="Path 23102" d="M319.338,765.048a.841.841,0,0,1-.417-1.1c.635-1.428,1.29-2.841,2.01-4.227,1.092-2.064,2.16-4.138,3.266-6.192.445-.7.98-2.232,2.028-1.5.693.588-.014,1.315-.335,1.891-.972,1.684-1.82,3.434-2.739,5.147-.76,1.431-1.5,2.87-2.169,4.346-.357.68-.6,2.048-1.645,1.633" transform="translate(-306.962 -696.203)" fill="#b38f5e" stroke="#b38f5e" stroke-width="0.5"/>
      <path id="Path_23103" data-name="Path 23103" d="M314.642,762.791a.833.833,0,0,1,.056-1.665c3.334-.078,6.665-.385,10-.237.936.165,3.113-.42,3.178.953a.836.836,0,0,1-.861.8c-.949-.076-1.9-.085-2.853-.1-3.252-.135-6.308.2-9.523.245" transform="translate(-308.845 -692.805)" fill="#b38f5e" stroke="#b38f5e" stroke-width="0.5"/>
      <path id="Path_23104" data-name="Path 23104" d="M356.271,769.288c-4.594-.406-8.679-3.06-11.764-6.371-.7-.815-4.094-4.763-2.569-5.5a.84.84,0,0,1,1.124.351,18.445,18.445,0,0,0,9.559,8.926,17.108,17.108,0,0,0,8.967.739c5.23-.745,9.431-4.782,11.983-9.2a16.434,16.434,0,0,0-7.458-22.881c-5.248-3.119-11.962-2.154-16.9,1.1a22.006,22.006,0,0,0-6.117,6.14.87.87,0,0,1-1.7-.109c-.04-.435.308-.749.512-1.1a22.074,22.074,0,0,1,8.572-7.525,17.527,17.527,0,0,1,14.288-1.009c5.358,2.25,10.212,6.37,11.754,12.157,3.089,9.322-2.925,19.691-11.674,23.355a22.886,22.886,0,0,1-8.577.929" transform="translate(-298.464 -703.764)" fill="#b38f5e" stroke="#b38f5e" stroke-width="0.5"/>
      <path id="Path_23105" data-name="Path 23105" d="M360.729,762.73c-.65-1.41-1.1-2.8-1.811-4.139a.837.837,0,0,1,1.093-1.232c1.089,1.287,1.443,3.152,2.2,4.62a.832.832,0,0,1-1.484.752" transform="translate(-291.929 -694.174)" fill="#b38f5e" stroke="#b38f5e" stroke-width="0.5"/>
      <path id="Path_23106" data-name="Path 23106" d="M368.74,762.9c-3.235-.173-6.473-.267-9.713-.216a12.821,12.821,0,0,1-3.133-.118.84.84,0,0,1-.248-1.15c.544-.7,1.914-.253,2.728-.388q5.221-.1,10.439.209a.833.833,0,0,1-.073,1.663" transform="translate(-293.14 -692.745)" fill="#b38f5e" stroke="#b38f5e" stroke-width="0.5"/>
      <path id="Path_23107" data-name="Path 23107" d="M363.159,741.016a10.811,10.811,0,0,0-8.979-3.995.837.837,0,1,1-.416-1.589.85.85,0,0,0-.167.018,12.2,12.2,0,0,1,8.354,2.147c.733.65,3.44,2.426,2.384,3.47a.838.838,0,0,1-1.176-.051" transform="translate(-294.1 -702.413)" fill="#b38f5e" stroke="#b38f5e" stroke-width="0.5"/>
      <path id="Path_23108" data-name="Path 23108" d="M327.8,747.772q-1.654-.471-3.306-.943c-.96-.438-3.722-.49-3.23-2.035a.929.929,0,0,1,1.4-.263c.907.344,1.858.573,2.788.839.913.465,3.788.442,3.4,1.866a.845.845,0,0,1-1.048.537" transform="translate(-306.073 -699.032)" fill="#b38f5e" stroke="#b38f5e" stroke-width="0.5"/>
      <path id="Path_23109" data-name="Path 23109" d="M325.917,751.8c-1.411-.47.423-3.427.632-4.441.522-.874,1.111-4.036,2.457-3.44,1.27.61-.627,2.775-.771,3.693-.463,1.2-.924,2.408-1.27,3.65a.837.837,0,0,1-1.048.537" transform="translate(-304.498 -699.217)" fill="#b38f5e" stroke="#b38f5e" stroke-width="0.5"/>
      <path id="Path_23110" data-name="Path 23110" d="M363.064,711.453a.838.838,0,0,1,1,.624c.28,2.671,1.652,6.269-.683,8.349-2.754,1.78-6.254,1.855-9.388,2.542-1.024.339-3.7.16-4.017,1.292.554,3.561,1.272,7.155,1.787,10.717.233,1.519.529,3.028.744,4.55.139.706.222,1.862-.786,1.848-1.173-.134-.7-1.65-.983-2.457-.434-2.5-.825-5-1.227-7.5-.328-2.037-.7-4.068-1.067-6.1-.733-2.385,1.224-3.442,3.3-3.654,2.948-.511,5.925-.939,8.815-1.725,1.552-.33,2.71-1.3,2.458-3a25.092,25.092,0,0,0-.311-2.915c-.025-.833-.782-2.207.362-2.561" transform="translate(-295.866 -711.434)" fill="#b38f5e" stroke="#b38f5e" stroke-width="0.5"/>
      <path id="Path_23111" data-name="Path 23111" d="M361.881,741.5a.832.832,0,1,1,.8.866.843.843,0,0,1-.8-.866" transform="translate(-290.74 -700.4)" fill="#b38f5e" stroke="#b38f5e" stroke-width="0.5"/>
      <path id="Path_23112" data-name="Path 23112" d="M311,749.95a13.693,13.693,0,0,1,.452-7.5c.431-.76.8-2.193,1.86-2.137a.848.848,0,0,1,.516,1.322,6.915,6.915,0,0,0-1.158,2.4,13.362,13.362,0,0,0-.048,5.544.833.833,0,0,1-1.622.373" transform="translate(-310.039 -700.549)" fill="#b38f5e" stroke="#b38f5e" stroke-width="0.5"/>
      <path id="Path_23113" data-name="Path 23113" d="M366.441,757.931c-1.007-.748.343-1.87.632-2.626a17.941,17.941,0,0,0,2.357-6.64.833.833,0,0,1,1.663.07c.142,1.347-2.922,10.451-4.653,9.2" transform="translate(-289.16 -697.689)" fill="#b38f5e" stroke="#b38f5e" stroke-width="0.5"/>
      <path id="Path_23114" data-name="Path 23114" d="M369.314,757.069c-.7-.331-.446-1.106-.179-1.647a36.878,36.878,0,0,0,1.355-3.829c-.032-1.338,1.8-1.557,1.729-.14a33.638,33.638,0,0,1-1.8,5.22.833.833,0,0,1-1.107.4" transform="translate(-288.109 -696.712)" fill="#b38f5e" stroke="#b38f5e" stroke-width="0.5"/>
      <path id="Path_23115" data-name="Path 23115" d="M334.376,732.443a.989.989,0,0,0,.565-1.787c-1.972-1.088-2.585,1.637-.565,1.787m-1.727,1.135c-3.046-2.067.453-6.838,3.034-4.08,3.353,1.326-.021,6.287-3.034,4.08" transform="translate(-302.206 -704.939)" fill="#b38f5e" stroke="#b38f5e" stroke-width="0.5"/>
      <path id="Path_23116" data-name="Path 23116" d="M357.7,728.558c-.986-.066-.786-1.192-.8-1.889-.07-.65,0-1.589.865-1.562.878.045.814.985.8,1.633.021.7.142,1.834-.865,1.818" transform="translate(-292.624 -706.279)" fill="#b38f5e" stroke="#b38f5e" stroke-width="0.5"/>
      <path id="Path_23117" data-name="Path 23117" d="M359.718,728.636c-1.213-.526-.087-1.957.014-2.853a.881.881,0,0,1,.888-.847c1.027.083.817,1.215.543,1.895-.266.716-.361,2.1-1.444,1.805" transform="translate(-291.766 -706.344)" fill="#b38f5e" stroke="#b38f5e" stroke-width="0.5"/>
      <path id="Path_23118" data-name="Path 23118" d="M311.859,756.325a.839.839,0,0,1-.8-.866c.11-1.13,1.511-.72,2.29-.876.819.05,2.286-.493,2.48.677a.837.837,0,0,1-.752.907c-1.074.022-2.148.146-3.222.157" transform="translate(-309.898 -695.199)" fill="#b38f5e" stroke="#b38f5e" stroke-width="0.5"/>
      <path id="Path_23119" data-name="Path 23119" d="M312.374,757.926a20.891,20.891,0,0,1-.146-4.379.836.836,0,0,1,.967-.671c1.063.252.533,1.439.636,2.2-.205,1.056.9,3.292-.549,3.6a.844.844,0,0,1-.907-.751" transform="translate(-309.484 -695.815)" fill="#b38f5e" stroke="#b38f5e" stroke-width="0.5"/>
      <path id="Path_23120" data-name="Path 23120" d="M310.706,720.9c-1.754-1.188,1.667-4.143,3.068-4.2.651-.127,1.647-.27,1.793.6a.838.838,0,0,1-.694.949c-2.955-.167-2.586,3.035-4.167,2.644" transform="translate(-310.217 -709.485)" fill="#b38f5e" stroke="#b38f5e" stroke-width="0.5"/>
      <path id="Path_23121" data-name="Path 23121" d="M325.126,755.268a.838.838,0,0,1,.761-.9c1.455-.15,2.908-.329,4.371-.406,4.822-.3,9.606-.975,14.4-1.5a.833.833,0,0,1,.135,1.659c-3.237.31-6.451.821-9.69,1.106-2.408.233-4.826.379-7.235.6-.884-.017-2.512.741-2.747-.559" transform="translate(-304.597 -695.968)" fill="#b38f5e" stroke="#b38f5e" stroke-width="0.5"/>
    </g>
  </g>
</svg>
