<svg xmlns="http://www.w3.org/2000/svg" width="76.158" height="72.522" viewBox="0 0 76.158 72.522">
  <g id="Group_8115" data-name="Group 8115" transform="translate(-719.92 -5354.948)">
    <g id="Group_8114" data-name="Group 8114" transform="translate(720.172 5355.2)">
      <path id="Path_23122" data-name="Path 23122" d="M170.444,716.108c.155-.053.313-.1.471-.146a2.308,2.308,0,0,0-1.322.474,7.625,7.625,0,0,1,.851-.328" transform="translate(-162.451 -707.921)" fill="#b38f5e" stroke="#b38f5e" stroke-width="0.5"/>
      <path id="Path_23123" data-name="Path 23123" d="M167.707,740.657a34.584,34.584,0,0,1-.585-6.86,103.012,103.012,0,0,1,.423-17.684c.2-1.227,1.952-.776,1.272.329a92.189,92.189,0,0,0-.47,14.788c.107,1.81.063,3.64.155,5.446.093,1.277.294,2.54.5,3.8a.656.656,0,1,1-1.3.178" transform="translate(-163.379 -708.125)" fill="#b38f5e" stroke="#b38f5e" stroke-width="0.5"/>
      <path id="Path_23124" data-name="Path 23124" d="M167.96,716.76c-.589-.42-.169-1.261.447-1.389a36.051,36.051,0,0,1,5.738-.477c2.658.007,5.308-.157,7.965-.166,4.907.108,9.824-.15,14.716-.032a27.945,27.945,0,0,1,6.267.253c.405.1.914.005,1.216.343a.662.662,0,0,1-.56,1.072c-.614-.086-1.227-.181-1.84-.271a34.935,34.935,0,0,0-5.3-.08c-4.477-.142-8.832.127-13.287.04a140.191,140.191,0,0,0-14.451.549.663.663,0,0,1-.911.158" transform="translate(-163.121 -708.383)" fill="#b38f5e" stroke="#b38f5e" stroke-width="0.5"/>
      <path id="Path_23125" data-name="Path 23125" d="M195.1,725.714c-1.026-.189-.428-1.486-.459-2.19.088-2.4.84-4.948-.182-7.236-1-.982.965-2.168,1.463.171.656,1.712.3,3.521.178,5.288-.051,1.127-.2,2.242-.292,3.366a.663.663,0,0,1-.709.6" transform="translate(-153.845 -708.222)" fill="#b38f5e" stroke="#b38f5e" stroke-width="0.5"/>
      <path id="Path_23126" data-name="Path 23126" d="M176.621,736.573c-2.585-.234-5.269.074-7.79-.6-.821-.223-1.808-1.484-.991-2.187a.663.663,0,0,1,.9.208c.162.482.2.7.757.821a89.335,89.335,0,0,0,13.669.348c3.4-.136,6.8-.108,10.21-.109.74.005,1.48.011,2.219-.007.451-.049,1.037-.043,1.13.52a.662.662,0,0,1-.533.76c-6.56.016-13.108.173-19.661.248h.084" transform="translate(-163.171 -701.717)" fill="#b38f5e" stroke="#b38f5e" stroke-width="0.5"/>
      <path id="Path_23127" data-name="Path 23127" d="M178.779,731.794c-2.234.012-4.438.067-6.642-.085a22.008,22.008,0,0,1-4.292-.14.657.657,0,0,1,.429-1.241c3.439.207,7.809.124,11.3.174,4.026-.015,8.052-.041,12.078-.124,1.3.043,2.458.013,3.738-.007a.656.656,0,0,1,.059,1.311c-1.134.008-2.268.058-3.4.011-4.421.039-8.846.163-13.268.1" transform="translate(-163.21 -702.905)" fill="#b38f5e" stroke="#b38f5e" stroke-width="0.5"/>
      <path id="Path_23128" data-name="Path 23128" d="M169.279,727.587c.02-3.4-.486-6.893.421-10.22a.663.663,0,0,1,.869-.327.725.725,0,0,1,.3.99,20.516,20.516,0,0,0-.331,2.161c-.165,2.415.053,4.847.047,7.266a.657.657,0,0,1-1.306.13" transform="translate(-162.604 -707.563)" fill="#b38f5e" stroke="#b38f5e" stroke-width="0.5"/>
      <path id="Path_23129" data-name="Path 23129" d="M169.5,727.7a.656.656,0,1,1,.643.67.664.664,0,0,1-.643-.67" transform="translate(-162.484 -704.038)" fill="#b38f5e" stroke="#b38f5e" stroke-width="0.5"/>
      <path id="Path_23130" data-name="Path 23130" d="M197.508,745.9c11.459-.225,10.916,1.651,12.665-10.2a61.63,61.63,0,0,0,.787-6.618c.134-1.731.072-3.336-1.912-3.823-2.211-.851-4.546-.794-6.847-.869-3.147-.327-6.274.277-9.372.7-5.885,1.725-1.166,16.149.536,19.989.71.844,3.044.64,4.143.818m.016,1.315c-1.675-.247-3.939.112-5.159-1.264a34.061,34.061,0,0,1-2.573-7.516c-.979-4.069-2.411-10.364.89-13.671,1.566-1.365,3.719-1.049,5.613-1.481a30.162,30.162,0,0,1,6.838-.184,18.494,18.494,0,0,1,6.444.959c2.678.769,2.9,3.027,2.676,5.439-.182,3.1-.764,6.16-1.227,9.23-.489,2.274-.456,4.87-1.921,6.784-2.1,2.175-5.534,1.623-8.285,1.648-1.118-.008-2.187.154-3.3.054" transform="translate(-155.788 -705.457)" fill="#b38f5e" stroke="#b38f5e" stroke-width="0.5"/>
      <path id="Path_23131" data-name="Path 23131" d="M199.171,737.982a13.081,13.081,0,0,0,2.553-.117,44.793,44.793,0,0,0,.913-5.916c.225-1.758.819-2.8-1.52-2.89-2.017-.093-4.008.081-6.014.184-.143,1.891.381,3.783.483,5.674.119,2.924.753,3.256,3.586,3.066m-2.9,1.106c-2.129-.679-1.836-3.316-2.1-5.1a40.15,40.15,0,0,1-.428-4.455c-.844-1.835,2.082-1.65,3.166-1.694,2.225.02,4.922-.689,6.807.8.768.8.406,1.977.29,2.954-.244,1.87-.4,3.75-.78,5.6-.109,1.924-1.361,2.214-3.044,2.093a14.608,14.608,0,0,1-3.91-.2" transform="translate(-154.049 -703.817)" fill="#b38f5e" stroke="#b38f5e" stroke-width="0.5"/>
      <path id="Path_23132" data-name="Path 23132" d="M177.106,740.061c-1.076-.339-.126-1.858-.035-2.608.347-.706.356-2.6,1.527-2.178a.675.675,0,0,1,.238.973c-.23.63-.409,1.28-.61,1.92-.278.64-.116,2.013-1.119,1.893" transform="translate(-159.999 -701.181)" fill="#b38f5e" stroke="#b38f5e" stroke-width="0.5"/>
      <path id="Path_23133" data-name="Path 23133" d="M183.231,739.639c-.378-1.11-.474-2.286-.767-3.413a.677.677,0,0,1,.855-.979c.8.66.675,2.932,1.162,3.992a.656.656,0,0,1-1.25.4" transform="translate(-157.983 -701.196)" fill="#b38f5e" stroke="#b38f5e" stroke-width="0.5"/>
      <path id="Path_23134" data-name="Path 23134" d="M173.794,744.421c-1.774-.2-5.245.428-6.5-.69-1.261-1.369-.427-5.267,1.777-5.219,3.665-.333,7.346-.239,11.02-.256,3.613-.088,7.232-.274,10.844-.148.533-.089,1.17.289.961.894-.3.717-1.211.335-1.808.391-3.845-.077-7.7.153-11.542.2-2.04-.072-4.03-.058-6.059.055-.934.138-3.619-.2-4.066.6a3.1,3.1,0,0,0-.193,2.56,2.928,2.928,0,0,0,1.4.258c1.4-.008,2.807.026,4.2.043,5.254.005,10.5-.371,15.756-.163.914.02,1.828-.026,2.741-.032a.656.656,0,0,1-.1,1.308c-2.7.119-5.407-.094-8.112-.031-3.441.109-6.881.223-10.327.229h.008" transform="translate(-163.463 -700.183)" fill="#b38f5e" stroke="#b38f5e" stroke-width="0.5"/>
      <path id="Path_23135" data-name="Path 23135" d="M171.2,769.01c-.443-.308-.24-.879-.263-1.33-.095-2.746.055-5.483-.027-8.2-.181-3.389-.057-6.733-.147-10.115-.05-1.81-.015-3.62-.039-5.431a2.654,2.654,0,0,1,.116-1.23.657.657,0,0,1,1.187.464c.014.971.024,1.941.018,2.912-.011,2.507.072,5.014.074,7.522-.043,3.455.219,6.979.088,10.421-.028,1.4.078,2.8.022,4.195a.7.7,0,0,1-1.027.79" transform="translate(-162.06 -698.657)" fill="#b38f5e" stroke="#b38f5e" stroke-width="0.5"/>
      <path id="Path_23136" data-name="Path 23136" d="M174.38,769.016a.661.661,0,0,1-.518-.771c-.008-.586-.08-1.172-.043-1.76.107-4.2.084-8.374-.036-12.562-.135-3.652-.005-7.305.012-10.956a.657.657,0,0,1,1.311-.082c0,.973-.005,1.947-.016,2.922-.209,5.948.213,11.918.1,17.867-.039,1.157-.081,2.313-.069,3.47.026.669.316,1.978-.743,1.874" transform="translate(-161.006 -698.707)" fill="#b38f5e" stroke="#b38f5e" stroke-width="0.5"/>
      <path id="Path_23137" data-name="Path 23137" d="M172.8,762.869c-.755-.019-2.233-.508-1.585-1.482a.66.66,0,0,1,.927-.058c.058.058.092.115.174.127a4.007,4.007,0,0,0,2.55-.14c1.273-.838,2.284,1.9-2.067,1.554" transform="translate(-161.94 -692.101)" fill="#b38f5e" stroke="#b38f5e" stroke-width="0.5"/>
      <path id="Path_23138" data-name="Path 23138" d="M208.7,743.951a.661.661,0,0,1,.618-.691c.927-.013,1.852-.034,2.776-.1,3.551-.157,7.134.171,10.671-.1a2.3,2.3,0,0,0,.165-1.015,5.364,5.364,0,0,0-.066-2.421,22,22,0,0,0-4.353-.135c-1.495-.035-2.98.028-4.473,0-1.143.013-2.287.093-3.433.081-.421-.024-.944.131-1.26-.229a.66.66,0,0,1,.567-1.076c1.2,0,2.394-.024,3.59-.081,1.96-.012,3.9.007,5.862-.038,1.476.154,4.5-.567,4.851,1.385a5.3,5.3,0,0,1,.059,2.136c-.027,1.369-.192,2.827-1.927,2.769-1.792.084-3.533-.015-5.289.024-1.7-.055-3.4-.019-5.106.022-.853.051-1.706.076-2.561.088a.664.664,0,0,1-.691-.62" transform="translate(-148.761 -700.158)" fill="#b38f5e" stroke="#b38f5e" stroke-width="0.5"/>
      <path id="Path_23139" data-name="Path 23139" d="M212.748,768.964c-1.05-.1-.5-1.793-.624-2.521-.08-3.42.151-6.875,0-10.281-.02-3.537,0-7.069-.022-10.606-.023-.833-.082-1.779-.073-2.588a.66.66,0,0,1,.6-.706c.77-.024.734.748.71,1.31.042,1.063.086,2.125.08,3.19.016,2.94-.011,5.869.018,8.777.011,3.185.135,6.248-.065,9.4.051,1.064.072,2.129.053,3.194a.689.689,0,0,1-.682.826" transform="translate(-147.595 -698.714)" fill="#b38f5e" stroke="#b38f5e" stroke-width="0.5"/>
      <path id="Path_23140" data-name="Path 23140" d="M215.5,768.711a.661.661,0,0,1-.337-.821.575.575,0,0,0-.038.173c-.011-3.725-.117-7.493-.1-11.176.023-4.636.227-9.28.088-13.915a.656.656,0,0,1,1.284-.273c.192,3.451-.022,6.923.005,10.382-.123,3.782-.045,7.5.008,11.273-.032.98,0,1.941.034,2.916.047.67.05,1.769-.941,1.441" transform="translate(-146.548 -698.739)" fill="#b38f5e" stroke="#b38f5e" stroke-width="0.5"/>
      <path id="Path_23141" data-name="Path 23141" d="M214.52,762.917c-.832-.008-2.905-.494-2.211-1.669.5-.52.873-.049,1.334.194a4.169,4.169,0,0,0,2.141.037c.458-.263,1.06-.837,1.5-.211a.661.661,0,0,1-.174.911,3.763,3.763,0,0,1-2.593.737" transform="translate(-147.547 -692.16)" fill="#b38f5e" stroke="#b38f5e" stroke-width="0.5"/>
      <path id="Path_23142" data-name="Path 23142" d="M185.857,737.853a.656.656,0,0,1,.009-1.312c.6-.036,1.206-.1,1.809-.138.686.128,2.3-.29,2.413.618a.663.663,0,0,1-.574.732,27.817,27.817,0,0,0-3.657.1" transform="translate(-156.979 -700.765)" fill="#b38f5e" stroke="#b38f5e" stroke-width="0.5"/>
      <path id="Path_23143" data-name="Path 23143" d="M191.789,745.3a11.063,11.063,0,0,1-4.416-2.8,3.729,3.729,0,0,1-1.042-3.628c.236-.718-.082-2.255,1.006-2.225a.663.663,0,0,1,.551.747c-.7,3.506-.4,3.815,2.494,5.866.628.32,1.291.573,1.941.844a.657.657,0,0,1-.533,1.2" transform="translate(-156.623 -700.682)" fill="#b38f5e" stroke="#b38f5e" stroke-width="0.5"/>
      <path id="Path_23144" data-name="Path 23144" d="M206.433,737.839a.657.657,0,0,1,.194-1.3c1.22.086,2.457-.227,3.675-.03,1.007.259.518,1.58-.448,1.272-1.139-.093-2.284.184-3.421.057" transform="translate(-149.746 -700.751)" fill="#b38f5e" stroke="#b38f5e" stroke-width="0.5"/>
      <path id="Path_23145" data-name="Path 23145" d="M204.389,744.986c-.491-.736.5-1.137.967-1.515.949-.647,1.747-1.48,2.688-2.137.258-.19.2-.554.247-.837a9.953,9.953,0,0,0-.046-2.776c-.223-.49.061-1.161.671-1.067,1.137.022.869,4.859.234,5.43-.815.72-1.7,1.372-2.525,2.09-.655.342-1.508,1.588-2.236.811" transform="translate(-150.317 -700.68)" fill="#b38f5e" stroke="#b38f5e" stroke-width="0.5"/>
      <path id="Path_23146" data-name="Path 23146" d="M208.3,746.726c1.185-.1,4.65.459,5.3-.52.251-.734.409-1.623-.282-2.16a181.448,181.448,0,0,0-22.912-.081c-2.3.039-2.6,2.279-.146,2.395,6.006.416,12.026.175,18.039.366m.585,1.32c-6.212-.19-12.429.043-18.619-.37-3.8-.022-4.162-4.6-.325-4.964a150.524,150.524,0,0,1,17.692-.246c1.659,0,3.314.146,4.971.234.648.1,1.794-.212,1.9.7.913.928.678,2.383.234,3.48-.977,1.736-4.149,1.075-5.855,1.166" transform="translate(-156.275 -698.691)" fill="#b38f5e" stroke="#b38f5e" stroke-width="0.5"/>
      <path id="Path_23147" data-name="Path 23147" d="M200.888,750.845c-1.922-.031-3.837-.231-5.75-.408a4.663,4.663,0,0,1-4.281-2.685c-.338-.644-.9-2.09.358-1.976.471.078.509.69.652,1a3.231,3.231,0,0,0,2.051,2.121,48.929,48.929,0,0,0,6.351.622c2.141.1,5.38-.163,6.636-2.115.2-.439.4-.882.564-1.335a.657.657,0,0,1,1.223.477,5.615,5.615,0,0,1-1.461,2.545,10.126,10.126,0,0,1-6.343,1.752" transform="translate(-155.155 -697.523)" fill="#b38f5e" stroke="#b38f5e" stroke-width="0.5"/>
      <path id="Path_23148" data-name="Path 23148" d="M196.828,752.578c.112-1,.1-2.014.211-3.011a.665.665,0,0,1,.791-.486c.888.29.325,1.53.414,2.227-.094.556.046,1.233-.286,1.7a.662.662,0,0,1-1.13-.432" transform="translate(-152.917 -696.333)" fill="#b38f5e" stroke="#b38f5e" stroke-width="0.5"/>
      <path id="Path_23149" data-name="Path 23149" d="M195.209,755.266c-.564-3.895,4.466-5.813,5.424-1.4.166.6.489,1.717-.436,1.808a.713.713,0,0,1-.689-.837,4.947,4.947,0,0,0-.556-1.7c-1.115-1.443-2.673.483-2.48,1.778a.657.657,0,0,1-1.264.351" transform="translate(-153.499 -695.54)" fill="#b38f5e" stroke="#b38f5e" stroke-width="0.5"/>
      <path id="Path_23150" data-name="Path 23150" d="M216.977,760.359c.008-.207.031-.412.042-.618s.014-.438,0-.655a106.86,106.86,0,0,0-10.826-3.2c-4.269-1.284-5.488-1.033-9.569.354-3.34,1.069-6.773,2.014-10.171,2.839-.084.424-.073.86-.154,1.283a.657.657,0,0,1-1.276-.309c.135-.656-.049-1.586.559-2.028,1.711-.6,3.517-.906,5.252-1.453,3.079-.741,6.055-1.866,9.1-2.711a12.943,12.943,0,0,1,5.483.447c3.611,1.112,7.366,1.747,10.883,3.143,1.914.506,2.215.886,1.986,2.88a.657.657,0,0,1-1.312.03" transform="translate(-157.056 -694.704)" fill="#b38f5e" stroke="#b38f5e" stroke-width="0.5"/>
      <path id="Path_23151" data-name="Path 23151" d="M198.347,762.545a1.332,1.332,0,0,0,1.289-1.493c-.041-.267-.3-.47-.247-.752-2.233-2.418-4.189,1.879-1.042,2.245m-.4,1.268a2.85,2.85,0,0,1-1.42-5.115,2.78,2.78,0,0,1,3.289.234c.389.319.9.709.894,1.258a2.6,2.6,0,0,1-2.762,3.623" transform="translate(-153.42 -693.11)" fill="#b38f5e" stroke="#b38f5e" stroke-width="0.5"/>
      <path id="Path_23152" data-name="Path 23152" d="M186.456,762.778c2.19-.173,2.41-3.043-.008-2.912-1.851.108-2.075,2.94.008,2.912m-.1,1.308c-3.822-.117-3.371-5.518.2-5.539,4.2.085,3.742,5.418-.2,5.539" transform="translate(-157.521 -693.014)" fill="#b38f5e" stroke="#b38f5e" stroke-width="0.5"/>
      <path id="Path_23153" data-name="Path 23153" d="M210.263,762.7a1.778,1.778,0,0,0,1.508-1.739,2.239,2.239,0,0,0-2.274-1.014c-1.781.563-.855,2.839.766,2.753m-.732,1.238c-3.169-.733-3.053-5.227.32-5.346,1.408.023,3.262.995,3.24,2.573a3.026,3.026,0,0,1-3.56,2.773" transform="translate(-149.274 -692.998)" fill="#b38f5e" stroke="#b38f5e" stroke-width="0.5"/>
      <path id="Path_23154" data-name="Path 23154" d="M197.077,760.2a29.888,29.888,0,0,0-.008-4.779c-.07-.508-.213-1.26.474-1.38a.661.661,0,0,1,.753.543,24.757,24.757,0,0,1,.094,5.234c.05.452-.093,1-.637,1.018a.662.662,0,0,1-.676-.636" transform="translate(-152.854 -694.592)" fill="#b38f5e" stroke="#b38f5e" stroke-width="0.5"/>
      <path id="Path_23155" data-name="Path 23155" d="M168.509,713.857c-.564-.425-1.048-.946-1.584-1.407-.313-.234-.73-.47-.6-.937.716-1.515,2.2.865,2.969,1.288a.657.657,0,0,1-.782,1.056" transform="translate(-163.604 -709.652)" fill="#b38f5e" stroke="#b38f5e" stroke-width="0.5"/>
      <path id="Path_23156" data-name="Path 23156" d="M169.225,712.86c-.247-.64-.443-1.3-.682-1.94h0a.657.657,0,0,1,1.2-.535c.127.751,1.272,2.346.348,2.805a.658.658,0,0,1-.865-.332" transform="translate(-162.84 -710.006)" fill="#b38f5e" stroke="#b38f5e" stroke-width="0.5"/>
      <path id="Path_23157" data-name="Path 23157" d="M196.683,716.158c-.081-.606-.009-1.565-.814-1.635a7.792,7.792,0,0,0-2.067-.03.708.708,0,0,1-.95-.513c-.124-1.273,2.58-.809,3.364-.724,1.388.2,1.758,1.657,1.779,2.861a.657.657,0,0,1-1.312.04" transform="translate(-154.311 -708.921)" fill="#b38f5e" stroke="#b38f5e" stroke-width="0.5"/>
      <path id="Path_23158" data-name="Path 23158" d="M206.922,725.075a6.637,6.637,0,0,0-.277-1.268c-.915-.169-1.863-.142-2.778-.32a.656.656,0,0,1,.308-1.274c1.215.339,3.216-.261,3.738,1.235.146.662.73,1.92-.238,2.168a.663.663,0,0,1-.753-.541" transform="translate(-150.624 -705.74)" fill="#b38f5e" stroke="#b38f5e" stroke-width="0.5"/>
      <path id="Path_23159" data-name="Path 23159" d="M213.01,735.524c.567-.062.456-.749.34-1.139-.144-.062-.365-.126-.489-.015a.643.643,0,0,0,.148,1.154m-.494,1.226a1.957,1.957,0,0,1,.4-3.749c.728-.043,1.951.431,1.756,1.32.51,1.273-.778,2.954-2.16,2.429" transform="translate(-147.859 -701.957)" fill="#b38f5e" stroke="#b38f5e" stroke-width="0.5"/>
      <path id="Path_23160" data-name="Path 23160" d="M166.034,736.759c-.632-.077-1.878-.08-1.717-1.006a.663.663,0,0,1,.791-.483,4.286,4.286,0,0,0,2.009.093.656.656,0,0,1,.213,1.295,9.492,9.492,0,0,1-1.3.1" transform="translate(-164.303 -701.168)" fill="#b38f5e" stroke="#b38f5e" stroke-width="0.5"/>
      <path id="Path_23161" data-name="Path 23161" d="M165.13,738.054c.047-.829-.687-3.863.61-3.741a.661.661,0,0,1,.586.719c-.055.9.053,1.813.086,2.718a.66.66,0,1,1-1.283.3" transform="translate(-164.071 -701.498)" fill="#b38f5e" stroke="#b38f5e" stroke-width="0.5"/>
      <path id="Path_23162" data-name="Path 23162" d="M170.436,764.382c-1.585-.262-1.781-2.238-1.574-3.537a.661.661,0,0,1,.792-.483c.79.217.351,1.125.481,1.705.053.4.088,1.013.61,1.039a.657.657,0,0,1-.309,1.276" transform="translate(-162.73 -692.385)" fill="#b38f5e" stroke="#b38f5e" stroke-width="0.5"/>
      <path id="Path_23163" data-name="Path 23163" d="M217.627,737.578c-1.079-.254-.37-1.694-.373-2.45.186-.686-.034-2.16,1.04-2.016.948.262.209,1.678.234,2.381-.228.685.15,2.09-.9,2.084" transform="translate(-145.846 -701.921)" fill="#b38f5e" stroke="#b38f5e" stroke-width="0.5"/>
      <path id="Path_23164" data-name="Path 23164" d="M219.208,738.2c-1.068-.383-.053-1.754-.02-2.526.265-.726.2-1.567.648-2.151a.661.661,0,0,1,1.064.578c-.113.6-.275,1.187-.412,1.779-.317.716-.177,2.454-1.28,2.319" transform="translate(-145.253 -701.822)" fill="#b38f5e" stroke="#b38f5e" stroke-width="0.5"/>
      <path id="Path_23165" data-name="Path 23165" d="M186.926,748.256a3.505,3.505,0,0,1-1.543-1.922c-.238-.736-.265-2.533.941-2.083.717.463-.095,1.474.516,2.151a3.166,3.166,0,0,0,.868.8.657.657,0,0,1-.782,1.056" transform="translate(-156.969 -698.043)" fill="#b38f5e" stroke="#b38f5e" stroke-width="0.5"/>
    </g>
  </g>
</svg>
