<svg xmlns="http://www.w3.org/2000/svg" width="84.147" height="71.022" viewBox="0 0 84.147 71.022">
  <g id="Group_8111" data-name="Group 8111" transform="translate(-752.75 -5333.145)">
    <g id="Group_8110" data-name="Group 8110" transform="translate(753 5333.4)">
      <path id="Path_23077" data-name="Path 23077" d="M460.357,744.857l.023.039c.068-.073.138-.144.21-.212-.089.039-.177.082-.265.124l.032.048" transform="translate(-448.378 -705.716)" fill="#b38f5e" stroke="#b38f5e" stroke-width="0.5"/>
      <path id="Path_23078" data-name="Path 23078" d="M487.374,742.377c7.722.088,16.607-.724,22.346-6.458,2.245-2.733,2.156-7.113-.715-9.378a18.786,18.786,0,0,0-4.139-2.748c-.441-.272-1.125-.351-1.315-.891a44.223,44.223,0,0,0-23.221-1.506c-4.6.952-9.627,2.274-12.825,5.925-1.864,2.2-2.582,5.73-.44,7.991a17.141,17.141,0,0,0,5.111,4.017,39.865,39.865,0,0,0,15.2,3.048m-.575,1.592c-5.651-.29-11.573-1.083-16.581-3.87A17.778,17.778,0,0,1,465,735.193c-2-3.486-.284-7.852,2.632-10.248,2.883-2.617,6.794-3.752,10.484-4.73a46.3,46.3,0,0,1,18.149-.751c2.774.422,8.288,1.335,10.18,3.326,2.432,1.423,5.024,3.214,6.02,5.973a8.63,8.63,0,0,1-2.777,9.411c-6.322,5.14-15.017,5.97-22.889,5.8" transform="translate(-446.429 -718.909)" fill="#b38f5e" stroke="#b38f5e" stroke-width="0.5"/>
      <path id="Path_23079" data-name="Path 23079" d="M492.23,736.3c3.858-.461,10.18-2.417,9.842-7.2-1.45-2.566-4.393-3.486-7.028-4.386a33.039,33.039,0,0,0-19.037.257c-8.728,3.389-6.7,8.135,1.309,10.317a43.835,43.835,0,0,0,14.931,1.014l-.017,0m-4.269,1.834c-4.839-.148-9.793-.41-14.261-2.466-5.7-2.162-6.96-7.547-1.276-10.746,6.368-3.7,15.9-3.772,22.864-1.807,2.764.943,5.952,1.879,7.65,4.433,1.618,1.492.546,4.233-.579,5.748-3.462,4.154-9.322,4.774-14.4,4.838" transform="translate(-444.072 -717.411)" fill="#b38f5e" stroke="#b38f5e" stroke-width="0.5"/>
      <path id="Path_23080" data-name="Path 23080" d="M472.938,726.92a.8.8,0,0,1,.265-1.1,15.956,15.956,0,0,1,2.6-1.2c.927-.369,3.6-.9,2.848.91a.806.806,0,0,1-.86.308,6.486,6.486,0,0,0-1.852.428c-.913.177-2.253,1.686-3,.655" transform="translate(-441.982 -716.175)" fill="#b38f5e" stroke="#b38f5e" stroke-width="0.5"/>
      <path id="Path_23081" data-name="Path 23081" d="M471.309,727.321a.8.8,0,1,1,.828.774.807.807,0,0,1-.828-.774" transform="translate(-442.757 -715.027)" fill="#b38f5e" stroke="#b38f5e" stroke-width="0.5"/>
      <path id="Path_23082" data-name="Path 23082" d="M457.606,750.808c-1.2-.213-.52-1.726-.727-2.562-.024-1.766-.615-4.053,1.172-5.175,1.733-.933,3.858-.49,5.755-.7,4.04-.336,8.094-.381,12.146-.422,8.649-.142,17.289-.7,25.935-.11,6.387.148,12.778-.263,19.158.156,3.648.018,5.891.165,5.908,4.547.021,1.131-.071,2.116-.135,3.225a.8.8,0,0,1-1.595-.145c.065-1.719.373-3.368-.187-4.995-.517-1.488-3.352-.812-4.64-1.058-2.847-.162-5.591-.243-8.419-.15-6.69.2-13.42-.138-20.093-.305-7.346.243-14.693.444-22.044.54-3.464.144-6.941.3-10.394.559-2.05.357-.556,4.315-.969,5.872a.809.809,0,0,1-.871.726" transform="translate(-450.2 -707.309)" fill="#b38f5e" stroke="#b38f5e" stroke-width="0.5"/>
      <path id="Path_23083" data-name="Path 23083" d="M518.769,760.971c-12.475-.461-24.97,0-37.449-.187-3.379.1-6.749-.151-10.121-.292-2.484-.106-5.148.051-7.412-1.135-1.223-.547-1.736-1.952-2.026-3.128-.7-1.981-1.107-4.043-1.722-6.043a3,3,0,0,0-3.811-1.686,5.49,5.49,0,0,0-2.142,3.265c-.4.907-1.814.325-1.548-.6,1.222-4.138,5.137-6.257,8.371-2.664,1.4,2.257,1.507,5.175,2.493,7.645.617,3.513,6.548,2.454,9.216,2.792,3.362.239,6.723.272,10.094.251,11.647.16,23.307-.218,34.953.124,1.574-.045,6.752.644,7.043-1.078.783-2.469,1.134-9.089,3.211-10.378a5.556,5.556,0,0,1,3.489-.534c1.157.255,4.538.72,3.625,2.375-.429.5-1.019.219-1.447-.115a8.092,8.092,0,0,0-1.618-.516c-2.411-.564-3.787-.194-4.186,2.38-.445,2.038-.952,4.061-1.264,6.123-.426,4.219-4.646,3.294-7.75,3.4" transform="translate(-452.381 -704.702)" fill="#b38f5e" stroke="#b38f5e" stroke-width="0.5"/>
      <path id="Path_23084" data-name="Path 23084" d="M522.44,767.5c-3.107-.056-6.215-.1-9.322-.141-11.363-.4-22.715.1-34.074.219-4.219-.033-8.437-.132-12.655-.168-2.866-.284-5.836-.014-8.628-.785-2.185-.617-2.9-2.981-3.321-4.965-.428-1.56-.89-3.11-1.267-4.685-.236-1.27-1.853-7.18.553-6.611a.928.928,0,0,1,.375,1.217c-.171,3.12.972,6.148,1.739,9.134.9,4.6,2.036,4.735,6.449,4.859,11.99.688,24.009.307,36,.009,6.341,0,12.68.124,19.018.242,3.994-.11,8.109.546,12.026-.419,3.312-.739,3.3-4.807,4.083-7.477a28.668,28.668,0,0,0,.906-5.371c.147-1.17.337-2.464-.579-3.385-.806-.735.438-1.932,1.144-1.126a4.618,4.618,0,0,1,1.082,4.094,30.769,30.769,0,0,1-.862,5.562c-.819,2.865-.868,6.51-3.467,8.418" transform="translate(-452.423 -704.133)" fill="#b38f5e" stroke="#b38f5e" stroke-width="0.5"/>
      <path id="Path_23085" data-name="Path 23085" d="M458.8,765.885c-.122-1.088-.652-6.507,1.32-5.8a.808.808,0,0,1,.393,1.055,13.742,13.742,0,0,0-.154,4.374c1.379,1.924,2.33-3.693,2.788-4.5a.81.81,0,0,1,1-.532c1.279.532-.089,2.26-.177,3.214-.5,1.492-1.033,3.539-2.833,3.849a2.245,2.245,0,0,1-2.339-1.66" transform="translate(-449.239 -697.869)" fill="#b38f5e" stroke="#b38f5e" stroke-width="0.5"/>
      <path id="Path_23086" data-name="Path 23086" d="M501.124,767.737c-2.417-.41-2.744-4.611-3.406-6.591a.8.8,0,0,1,1.589-.191c.452,1.132.955,5.226,2.268,5.231a21.113,21.113,0,0,0,.032-5.019.813.813,0,0,1,.721-.874c1.219-.026.831,1.507.957,2.3,0,1.733.67,5.722-2.16,5.14" transform="translate(-429.243 -697.734)" fill="#b38f5e" stroke="#b38f5e" stroke-width="0.5"/>
      <path id="Path_23087" data-name="Path 23087" d="M463.833,752.4c-1.135,0-2.272-.041-3.408-.045-.655.011-1.634.225-1.772-.661-.05-1.289,1.633-.865,2.467-.937,8.971.062,17.944-.068,26.916-.057,10.566-.366,21.153-.231,31.718-.018.76.035,1.518.042,2.277.008a.8.8,0,0,1,.009,1.6c-9.6-.148-19.217-.263-28.824-.168-9.79.367-19.588.127-29.383.275" transform="translate(-449.235 -702.753)" fill="#b38f5e" stroke="#b38f5e" stroke-width="0.5"/>
      <path id="Path_23088" data-name="Path 23088" d="M479.961,757.1a24.972,24.972,0,0,1-.307-4.631c-.071-.789-.024-2.015,1.111-1.669.915.325.316,2.9.528,3.814-.1.889.767,2.708-.349,3.051a.806.806,0,0,1-.983-.565" transform="translate(-438.497 -702.616)" fill="#b38f5e" stroke="#b38f5e" stroke-width="0.5"/>
      <path id="Path_23089" data-name="Path 23089" d="M459.63,749.565a4.3,4.3,0,0,1,.6-4.439c.54-.6,1.81-1.55,2.345-.479.4,1.59-2.1.593-1.652,3.991a.807.807,0,0,1-1.29.927" transform="translate(-448.928 -705.984)" fill="#b38f5e" stroke="#b38f5e" stroke-width="0.5"/>
      <path id="Path_23090" data-name="Path 23090" d="M462.676,744.935a.8.8,0,1,1,.8.8.809.809,0,0,1-.8-.8" transform="translate(-447.175 -706)" fill="#b38f5e" stroke="#b38f5e" stroke-width="0.5"/>
      <path id="Path_23091" data-name="Path 23091" d="M455.779,745.152c-2.1-.8,1.533-5.51,3.145-5.26a.8.8,0,0,1,.008,1.6c-2.313.845-1.8,3.929-3.152,3.659" transform="translate(-451.031 -708.174)" fill="#b38f5e" stroke="#b38f5e" stroke-width="0.5"/>
      <path id="Path_23092" data-name="Path 23092" d="M497.241,732.3c-1.293-.52,1.172-3.312.012-6.185-1.246-1.4,1.429-2.454,1.729.227.339,1.15.165,6.6-1.742,5.958" transform="translate(-429.683 -715.952)" fill="#b38f5e" stroke="#b38f5e" stroke-width="0.5"/>
      <path id="Path_23093" data-name="Path 23093" d="M462.11,726.709c-.807-.641-3.636-2.463-1.778-3.344a.843.843,0,0,1,.928.473,8.738,8.738,0,0,0,1.724,1.527.8.8,0,0,1-.874,1.344" transform="translate(-448.692 -716.638)" fill="#b38f5e" stroke="#b38f5e" stroke-width="0.5"/>
      <path id="Path_23094" data-name="Path 23094" d="M462.759,724.629c-.29-.9-1.525-2.913.113-3.111,1.03.129.877,1.808,1.391,2.558a.8.8,0,0,1-1.5.553" transform="translate(-447.501 -717.573)" fill="#b38f5e" stroke="#b38f5e" stroke-width="0.5"/>
      <path id="Path_23095" data-name="Path 23095" d="M501.909,740.495c1.03-.01,1-1.359.647-2.021-1.672-1.287-2.771,1.977-.647,2.021m-.027,1.6c-3.619-.062-3.637-5.264-.136-5.538.8.061,1.958.369,2.138,1.243,1.306,1.5.094,4.457-2,4.295" transform="translate(-428.511 -709.876)" fill="#b38f5e" stroke="#b38f5e" stroke-width="0.5"/>
      <path id="Path_23096" data-name="Path 23096" d="M453.452,763.362a.8.8,0,0,1,.076-1.6c1.054.251,3.775-.76,4.018.641.139,1.435-3.12.8-4.094.96" transform="translate(-452.274 -697.039)" fill="#b38f5e" stroke="#b38f5e" stroke-width="0.5"/>
      <path id="Path_23097" data-name="Path 23097" d="M453.925,764.942c.026-1.206-1.01-3.888.573-4.336a.8.8,0,0,1,.772,1.176,18.623,18.623,0,0,0,.251,3.019.8.8,0,0,1-1.6.141" transform="translate(-451.812 -697.57)" fill="#b38f5e" stroke="#b38f5e" stroke-width="0.5"/>
      <path id="Path_23098" data-name="Path 23098" d="M502.167,767.23c-1.24-.626.791-2.46.231-4.186a.739.739,0,0,0,.06.23.8.8,0,0,1,1.394-.764c.54,1.031,0,5.275-1.686,4.72" transform="translate(-427.173 -696.766)" fill="#b38f5e" stroke="#b38f5e" stroke-width="0.5"/>
    </g>
  </g>
</svg>
