<svg xmlns="http://www.w3.org/2000/svg" width="26.437" height="8.871" viewBox="0 0 26.437 8.871">
  <path id="Path_3832" data-name="Path 3832" d="M222.408,422.907a11.127,11.127,0,0,0-3.493-.63,13.216,13.216,0,0,0-3.72.465l-13.768,3.9a8.227,8.227,0,0,0,2.618,2.529,12.856,12.856,0,0,0,3.552,1.5,15.314,15.314,0,0,0,3.989.474,14.868,14.868,0,0,0,3.926-.551l.02.027,12.332-3.468a10.088,10.088,0,0,0-2.4-2.591,11.284,11.284,0,0,0-3.059-1.654" transform="translate(-201.426 -422.274)" fill="#b38f5e"/>
</svg>
