<svg xmlns="http://www.w3.org/2000/svg" xmlns:xlink="http://www.w3.org/1999/xlink" width="52.663" height="53.224" viewBox="0 0 52.663 53.224">
  <defs>
    <clipPath id="clip-path">
      <rect id="Rectangle_3325" data-name="Rectangle 3325" width="52.663" height="53.223" fill="#003268" stroke="#003268" stroke-width="1"/>
    </clipPath>
  </defs>
  <g id="Group_8172" data-name="Group 8172" transform="translate(-1096 -3727)">
    <g id="Group_8144" data-name="Group 8144" transform="translate(1096 3727)">
      <g id="Group_8142" data-name="Group 8142" transform="translate(0 0)">
        <g id="Group_8141" data-name="Group 8141" transform="translate(0 0)" clip-path="url(#clip-path)">
          <path id="Path_23253" data-name="Path 23253" d="M48.819,170A6.842,6.842,0,0,0,44.5,171.43a5.866,5.866,0,0,1-3.726,1.251c-3.8,0-3.826-2.682-8.048-2.682s-4.243,2.682-8.047,2.682S20.851,170,16.63,170s-4.243,2.682-8.047,2.682S4.757,170,.536,170a.536.536,0,1,0,0,1.073c3.8,0,3.826,2.682,8.047,2.682s4.243-2.682,8.047-2.682,3.825,2.682,8.047,2.682,4.243-2.682,8.047-2.682,3.826,2.682,8.048,2.682,4.244-2.682,8.048-2.682a.536.536,0,0,0,0-1.073" transform="translate(1.756 -122.772)" fill="#003268" stroke="#003268" stroke-width="1"/>
          <path id="Path_23254" data-name="Path 23254" d="M48.819,151.666c-4.223,0-4.244,2.682-8.048,2.682s-3.826-2.682-8.048-2.682-4.243,2.682-8.047,2.682-3.826-2.682-8.047-2.682-4.243,2.682-8.047,2.682-3.826-2.682-8.047-2.682a.536.536,0,1,0,0,1.073c3.8,0,3.826,2.682,8.047,2.682s4.243-2.682,8.047-2.682,3.825,2.682,8.047,2.682,4.243-2.682,8.047-2.682,3.826,2.682,8.048,2.682,4.244-2.682,8.048-2.682a.536.536,0,0,0,0-1.073" transform="translate(1.756 -109.357)" fill="#003268" stroke="#003268" stroke-width="1"/>
          <path id="Path_23255" data-name="Path 23255" d="M.662,69.8c8.906-2.135,16.8-1.946,26.387,5.918a.537.537,0,0,0,.81-.156c5.06-9.2,9.919-14.692,21.087-17.4a.536.536,0,0,0-.1-1.057,30.332,30.332,0,0,0-23.511,9.15A30.17,30.17,0,0,0,.274,68.814a.536.536,0,0,0,.388.989m24.633-2.415a.536.536,0,0,0,.575-.137,28.783,28.783,0,0,1,18.948-8.988c-8.66,3.037-13.21,8.4-17.588,16.224C19.482,68.3,12.585,66.728,4.548,67.939a28.539,28.539,0,0,1,20.747-.551" transform="translate(0 -39.852)" fill="#003268" stroke="#003268" stroke-width="1"/>
          <path id="Path_23256" data-name="Path 23256" d="M.375,1.047c6.29,1.989,11.108,5.022,14.177,13.361a.537.537,0,0,0,.772.28c6.486-3.744,11.5-5.3,19.394-2.825a.536.536,0,0,0,.453-.961A22.321,22.321,0,0,0,17.143,7.734,22.317,22.317,0,0,0,.554,0,.537.537,0,0,0,.375,1.047M16.537,8.682a.537.537,0,0,0,.559.176A20.729,20.729,0,0,1,31,9.873c-5.9-.933-10.445.628-15.664,3.574C12.83,7,9.278,3.7,4.8,1.6A20.7,20.7,0,0,1,16.537,8.682" transform="translate(1.756 1.627)" fill="#003268" stroke="#003268" stroke-width="1"/>
        </g>
      </g>
    </g>
  </g>
</svg>
