<svg id="Group_8171" data-name="Group 8171" xmlns="http://www.w3.org/2000/svg" xmlns:xlink="http://www.w3.org/1999/xlink" width="57.19" height="68.485" viewBox="0 0 57.19 68.485">
  <defs>
    <clipPath id="clip-path">
      <rect id="Rectangle_1910" data-name="Rectangle 1910" width="57.19" height="68.485" fill="none" stroke="#003268" stroke-width="2"/>
    </clipPath>
  </defs>
  <path id="Path_3872" data-name="Path 3872" d="M27.385,65.717H41.88V14.883L27.385,23.067Z" transform="translate(-4.789 -2.603)" fill="none" stroke="#003268" stroke-linecap="round" stroke-linejoin="round" stroke-width="2"/>
  <path id="Path_3873" data-name="Path 3873" d="M59.446,65.717H44.951V14.883l14.495,6.781Z" transform="translate(-7.861 -2.603)" fill="none" stroke="#003268" stroke-linecap="round" stroke-linejoin="round" stroke-width="2"/>
  <path id="Path_3874" data-name="Path 3874" d="M27.385,71.069l14.495-.614,14.494.508" transform="translate(-4.789 -12.321)" fill="none" stroke="#003268" stroke-linecap="round" stroke-linejoin="round" stroke-width="2"/>
  <path id="Path_3875" data-name="Path 3875" d="M27.385,65.693,41.88,64.287l14.494,1.165" transform="translate(-4.789 -11.242)" fill="none" stroke="#003268" stroke-linecap="round" stroke-linejoin="round" stroke-width="2"/>
  <path id="Path_3876" data-name="Path 3876" d="M27.385,60.316l14.495-2.2,14.494,1.826" transform="translate(-4.789 -10.163)" fill="none" stroke="#003268" stroke-linecap="round" stroke-linejoin="round" stroke-width="2"/>
  <path id="Path_3877" data-name="Path 3877" d="M27.385,54.938l14.495-3,14.494,2.487" transform="translate(-4.789 -9.083)" fill="none" stroke="#003268" stroke-linecap="round" stroke-linejoin="round" stroke-width="2"/>
  <path id="Path_3878" data-name="Path 3878" d="M27.385,49.561l14.495-3.8,14.494,3.148" transform="translate(-4.789 -8.003)" fill="none" stroke="#003268" stroke-linecap="round" stroke-linejoin="round" stroke-width="2"/>
  <path id="Path_3879" data-name="Path 3879" d="M27.385,44.183l14.495-4.6L56.374,43.4" transform="translate(-4.789 -6.923)" fill="none" stroke="#003268" stroke-linecap="round" stroke-linejoin="round" stroke-width="2"/>
  <path id="Path_3880" data-name="Path 3880" d="M27.385,38.806l14.495-5.4,14.494,4.471" transform="translate(-4.789 -5.843)" fill="none" stroke="#003268" stroke-linecap="round" stroke-linejoin="round" stroke-width="2"/>
  <path id="Path_3881" data-name="Path 3881" d="M27.385,33.429,41.88,27.235l14.494,5.132" transform="translate(-4.789 -4.763)" fill="none" stroke="#003268" stroke-linecap="round" stroke-linejoin="round" stroke-width="2"/>
  <path id="Path_3882" data-name="Path 3882" d="M27.385,28.051,41.88,21.058l14.494,5.794" transform="translate(-4.789 -3.683)" fill="none" stroke="#003268" stroke-linecap="round" stroke-linejoin="round" stroke-width="2"/>
  <g id="Group_3446" data-name="Group 3446">
    <g id="Group_3445" data-name="Group 3445" clip-path="url(#clip-path)">
      <path id="Path_3883" data-name="Path 3883" d="M28.745,19.276V1.5L20.794,5.989V63.377h5.438" transform="translate(-3.636 -0.262)" fill="none" stroke="#003268" stroke-linecap="round" stroke-linejoin="round" stroke-width="2"/>
      <path id="Path_3884" data-name="Path 3884" d="M30.43,1.5l7.951,3.72v9.6" transform="translate(-5.322 -0.262)" fill="none" stroke="#003268" stroke-linecap="round" stroke-linejoin="round" stroke-width="2"/>
    </g>
  </g>
  <path id="Path_3885" data-name="Path 3885" d="M6.794,65.377h6.739V12.936l-6.739,3.8Z" transform="translate(-1.188 -2.262)" fill="none" stroke="#003268" stroke-linecap="round" stroke-linejoin="round" stroke-width="2"/>
  <path id="Path_3886" data-name="Path 3886" d="M19.774,65.377H14.96V12.936l4.814,2.252" transform="translate(-2.616 -2.262)" fill="none" stroke="#003268" stroke-linecap="round" stroke-linejoin="round" stroke-width="2"/>
  <g id="Group_3448" data-name="Group 3448">
    <g id="Group_3447" data-name="Group 3447" clip-path="url(#clip-path)">
      <line id="Line_495" data-name="Line 495" x2="54.715" transform="translate(1.238 63.114)" fill="none" stroke="#003268" stroke-linecap="round" stroke-linejoin="round" stroke-width="2"/>
      <line id="Line_496" data-name="Line 496" x2="23.351" transform="translate(27.503 67.247)" fill="none" stroke="#003268" stroke-linecap="round" stroke-linejoin="round" stroke-width="2"/>
      <line id="Line_497" data-name="Line 497" x2="7.591" transform="translate(6.336 67.247)" fill="none" stroke="#003268" stroke-linecap="round" stroke-linejoin="round" stroke-width="2"/>
      <path id="Path_3887" data-name="Path 3887" d="M22.4,81.5h5.217" transform="translate(-3.918 -14.253)" fill="none" stroke="#003268" stroke-linecap="round" stroke-linejoin="round" stroke-width="2" stroke-dasharray="0.496 4.356"/>
    </g>
  </g>
</svg>
