<svg id="Group_3462" data-name="Group 3462" xmlns="http://www.w3.org/2000/svg" xmlns:xlink="http://www.w3.org/1999/xlink" width="75.878" height="42.205" viewBox="0 0 75.878 42.205">
  <defs>
    <clipPath id="clip-path">
      <rect id="Rectangle_1908" data-name="Rectangle 1908" width="75.878" height="42.205" fill="#003268" stroke="#003268" stroke-width="0.5"/>
    </clipPath>
  </defs>
  <g id="Group_3441" data-name="Group 3441" transform="translate(0 0)" clip-path="url(#clip-path)">
    <path id="Path_3858" data-name="Path 3858" d="M81.337,14.6c-1.108,0-3.407-.624-8.419-2.961a.794.794,0,0,1,.671-1.438c2.971,1.386,6.588,2.8,7.612,2.831a.466.466,0,0,0,.06-.144,12.23,12.23,0,0,0-2.352-1.2,10.77,10.77,0,0,1-4.455-4.285.793.793,0,0,1,1.394-.757,9.3,9.3,0,0,0,3.705,3.592c1.919.852,2.976,1.323,3.239,2.259a1.878,1.878,0,0,1-.368,1.566c-.128.237-.326.532-1.088.532" transform="translate(-8.592 -0.74)" fill="#003268" stroke="#003268" stroke-width="0.5"/>
    <path id="Path_3859" data-name="Path 3859" d="M59.777,17.143a.792.792,0,0,1-.79-.732c-.5-6.643.389-11.343,2.653-13.97A6.922,6.922,0,0,1,66.568.032a7.326,7.326,0,0,1,5.745,1.655,6.806,6.806,0,0,1,2.017,4.6.793.793,0,0,1-.791.8h0a.794.794,0,0,1-.794-.788,5.262,5.262,0,0,0-1.52-3.459,5.843,5.843,0,0,0-4.539-1.225,5.32,5.32,0,0,0-3.84,1.862c-1.951,2.263-2.737,6.694-2.274,12.814a.794.794,0,0,1-.731.851h-.061" transform="translate(-6.978 0)" fill="#003268" stroke="#003268" stroke-width="0.5"/>
    <path id="Path_3860" data-name="Path 3860" d="M42.046,37.173A80.734,80.734,0,0,1,28.88,36.13c-5.165-.867-7.933-2.589-9.254-5.755a.793.793,0,1,1,1.464-.612c.8,1.927,2.336,3.842,8.053,4.8,12.979,2.179,26.033.569,30.094-1.377,4.189-2.333,5.51-4.126,4.985-10.1a27.974,27.974,0,0,0-1.6-6.9c-.667-1.963-1.149-3.382-.119-4.336,1.489-1.379,4.224-1.227,4.532-1.206a.794.794,0,0,1-.112,1.584c-.643-.045-2.5.011-3.343.787-.274.254.142,1.477.544,2.66A29.341,29.341,0,0,1,65.8,22.951c.552,6.285-.7,8.788-5.836,11.646-3.2,1.533-10.133,2.576-17.919,2.576" transform="translate(-2.32 -1.261)" fill="#003268" stroke="#003268" stroke-width="0.5"/>
    <path id="Path_3861" data-name="Path 3861" d="M17.3,31.687a5.509,5.509,0,0,1-3.415-1.057,2.214,2.214,0,0,1-1.039-1.842.8.8,0,0,1,.093-.289c2.252-4.1,14.214-11.916,24.14-13.432a39.622,39.622,0,0,1,17.441,1.126.793.793,0,0,1-.517,1.5,38.755,38.755,0,0,0-16.684-1.058C28.194,18.029,16.915,25.175,14.483,29a2.211,2.211,0,0,0,.844.672c.712.358,2.283.814,4.8-.163a.793.793,0,1,1,.573,1.48,9.427,9.427,0,0,1-3.407.7" transform="translate(-1.522 -1.731)" fill="#003268" stroke="#003268" stroke-width="0.5"/>
    <path id="Path_3862" data-name="Path 3862" d="M29.765,30.3q-1.366,0-2.8-.085a.793.793,0,1,1,.1-1.584A43.588,43.588,0,0,0,48.23,24.656a.793.793,0,0,1,.747,1.4A43.9,43.9,0,0,1,29.765,30.3" transform="translate(-3.11 -2.912)" fill="#003268" stroke="#003268" stroke-width="0.5"/>
    <path id="Path_3863" data-name="Path 3863" d="M73.252,11.716a.794.794,0,0,1-.242-1.55c.683-.218,1.223-2.009,1.35-3.216a.793.793,0,1,1,1.578.164c-.067.653-.5,3.942-2.445,4.564a.794.794,0,0,1-.242.038" transform="translate(-8.592 -0.739)" fill="#003268" stroke="#003268" stroke-width="0.5"/>
    <path id="Path_3864" data-name="Path 3864" d="M70.583,5.274a.7.7,0,0,1-.3-.062.759.759,0,0,1-.494-.732.7.7,0,0,1,.062-.3,1.034,1.034,0,0,1,.167-.264,1.034,1.034,0,0,1,.264-.167.8.8,0,0,1,.864.167.84.84,0,0,1,.167.264.7.7,0,0,1,.062.3.832.832,0,0,1-.229.564.8.8,0,0,1-.256.167.743.743,0,0,1-.308.062" transform="translate(-8.276 -0.437)" fill="#003268" stroke="#003268" stroke-width="0.5"/>
    <path id="Path_3865" data-name="Path 3865" d="M83.589,38.026a9.608,9.608,0,0,1-5.141-1.863,7.228,7.228,0,0,0-3.755-1.473,4.552,4.552,0,0,0-1.863.422.793.793,0,0,1-.633-1.454,6.164,6.164,0,0,1,2.5-.554,8.637,8.637,0,0,1,4.583,1.706,8.126,8.126,0,0,0,4.314,1.63.793.793,0,1,1,0,1.587" transform="translate(-8.504 -3.925)" fill="#003268" stroke="#003268" stroke-width="0.5"/>
    <path id="Path_3866" data-name="Path 3866" d="M28.7,47.262A8.781,8.781,0,0,1,24,45.56a6.5,6.5,0,0,0-3.364-1.323,6.5,6.5,0,0,0-3.363,1.323l-.112.069a8.33,8.33,0,0,1-4.328,1.627A8.343,8.343,0,0,1,8.5,45.627l-.108-.068a.793.793,0,0,1,.831-1.351l.11.068a7.04,7.04,0,0,0,3.5,1.393,7.034,7.034,0,0,0,3.495-1.391l.113-.07a7.891,7.891,0,0,1,4.195-1.558,7.9,7.9,0,0,1,4.192,1.556,7.313,7.313,0,0,0,3.876,1.47,7.314,7.314,0,0,0,3.871-1.466,7.889,7.889,0,0,1,4.2-1.559h0a.793.793,0,0,1,0,1.586h0a6.5,6.5,0,0,0-3.361,1.322,8.78,8.78,0,0,1-4.706,1.7" transform="translate(-0.95 -5.057)" fill="#003268" stroke="#003268" stroke-width="0.5"/>
    <path id="Path_3867" data-name="Path 3867" d="M64.205,47.262a8.781,8.781,0,0,1-4.705-1.7,6.5,6.5,0,0,0-3.364-1.323,6.5,6.5,0,0,0-3.363,1.323l-.112.069a8.33,8.33,0,0,1-4.328,1.627A8.337,8.337,0,0,1,44,45.627l-.109-.068a6.505,6.505,0,0,0-3.364-1.323.793.793,0,1,1,0-1.586,7.891,7.891,0,0,1,4.193,1.557l.112.069a7.04,7.04,0,0,0,3.5,1.393,7.034,7.034,0,0,0,3.495-1.391l.113-.07a7.891,7.891,0,0,1,4.195-1.558,7.9,7.9,0,0,1,4.192,1.556,7.313,7.313,0,0,0,3.876,1.47,7.308,7.308,0,0,0,3.87-1.465,7.888,7.888,0,0,1,4.2-1.56h0a7.891,7.891,0,0,1,4.193,1.557.793.793,0,1,1-.83,1.352,6.505,6.505,0,0,0-3.364-1.323h0A6.5,6.5,0,0,0,68.91,45.56a8.778,8.778,0,0,1-4.7,1.7" transform="translate(-4.712 -5.057)" fill="#003268" stroke="#003268" stroke-width="0.5"/>
    <path id="Path_3868" data-name="Path 3868" d="M14.728,37.3h-.089a7.975,7.975,0,0,1-4.174-1.567,5.821,5.821,0,0,0-2.916-1.193,5.326,5.326,0,0,0-2.854,1.089l-.1.057A7.276,7.276,0,0,1,.78,37.056.793.793,0,0,1,0,36.25a.781.781,0,0,1,.807-.78,5.62,5.62,0,0,0,2.971-1.147l.1-.057a6.952,6.952,0,0,1,3.7-1.318A7.184,7.184,0,0,1,11.3,34.382a6.534,6.534,0,0,0,3.361,1.327,3.713,3.713,0,0,0,.64-.042.794.794,0,1,1,.235,1.57,5.53,5.53,0,0,1-.813.06" transform="translate(0 -3.907)" fill="#003268" stroke="#003268" stroke-width="0.5"/>
  </g>
</svg>
