<svg xmlns="http://www.w3.org/2000/svg" width="65.333" height="72.514" viewBox="0 0 65.333 72.514">
  <g id="Group_3467" data-name="Group 3467" transform="translate(1 1)">
    <path id="Path_3823" data-name="Path 3823" d="M197.357,237.16V196.928h22.29v13.748" transform="translate(-176.834 -171.43)" fill="none" stroke="#003268" stroke-linecap="round" stroke-linejoin="round" stroke-width="2"/>
    <line id="Line_469" data-name="Line 469" y2="3.009" transform="translate(42.813 62.721)" fill="none" stroke="#003268" stroke-linecap="round" stroke-linejoin="round" stroke-width="2"/>
    <line id="Line_470" data-name="Line 470" x2="11.598" transform="translate(26.051 31.207)" fill="none" stroke="#003268" stroke-linecap="round" stroke-linejoin="round" stroke-width="2" stroke-dasharray="0.478 5.581"/>
    <line id="Line_471" data-name="Line 471" x2="11.598" transform="translate(26.051 35.375)" fill="none" stroke="#003268" stroke-linecap="round" stroke-linejoin="round" stroke-width="2" stroke-dasharray="0.478 5.581"/>
    <line id="Line_472" data-name="Line 472" x2="11.598" transform="translate(26.051 39.543)" fill="none" stroke="#003268" stroke-linecap="round" stroke-linejoin="round" stroke-width="2" stroke-dasharray="0.478 5.581"/>
    <line id="Line_473" data-name="Line 473" x2="11.598" transform="translate(26.051 43.711)" fill="none" stroke="#003268" stroke-linecap="round" stroke-linejoin="round" stroke-width="2" stroke-dasharray="0.478 5.581"/>
    <line id="Line_474" data-name="Line 474" x2="11.598" transform="translate(26.051 47.879)" fill="none" stroke="#003268" stroke-linecap="round" stroke-linejoin="round" stroke-width="2" stroke-dasharray="0.478 5.581"/>
    <line id="Line_475" data-name="Line 475" x2="11.598" transform="translate(26.051 52.047)" fill="none" stroke="#003268" stroke-linecap="round" stroke-linejoin="round" stroke-width="2" stroke-dasharray="0.478 5.581"/>
    <path id="Path_3824" data-name="Path 3824" d="M212.432,241.418V232.84h-5.618v8.578" transform="translate(-177.956 -175.689)" fill="none" stroke="#003268" stroke-linecap="round" stroke-linejoin="round" stroke-width="2"/>
    <path id="Path_3825" data-name="Path 3825" d="M195.339,212.863h-15v26.187" transform="translate(-174.817 -173.32)" fill="none" stroke="#003268" stroke-linecap="round" stroke-linejoin="round" stroke-width="2"/>
    <line id="Line_476" data-name="Line 476" x1="5.904" transform="translate(10.072 43.711)" fill="none" stroke="#003268" stroke-linecap="round" stroke-linejoin="round" stroke-width="2" stroke-dasharray="0.478 5.581"/>
    <line id="Line_477" data-name="Line 477" x1="5.904" transform="translate(10.072 47.879)" fill="none" stroke="#003268" stroke-linecap="round" stroke-linejoin="round" stroke-width="2" stroke-dasharray="0.478 5.581"/>
    <line id="Line_478" data-name="Line 478" x1="5.904" transform="translate(10.072 52.048)" fill="none" stroke="#003268" stroke-linecap="round" stroke-linejoin="round" stroke-width="2" stroke-dasharray="0.478 5.581"/>
    <line id="Line_479" data-name="Line 479" x1="5.904" transform="translate(10.072 56.216)" fill="none" stroke="#003268" stroke-linecap="round" stroke-linejoin="round" stroke-width="2" stroke-dasharray="0.478 5.581"/>
    <line id="Line_480" data-name="Line 480" x1="5.904" transform="translate(10.072 60.384)" fill="none" stroke="#003268" stroke-linecap="round" stroke-linejoin="round" stroke-width="2" stroke-dasharray="0.478 5.581"/>
    <line id="Line_481" data-name="Line 481" x2="63.333" transform="translate(0 65.73)" fill="none" stroke="#003268" stroke-linecap="round" stroke-linejoin="round" stroke-width="2"/>
    <line id="Line_482" data-name="Line 482" x2="27.029" transform="translate(29.611 70.514)" fill="none" stroke="#003268" stroke-linecap="round" stroke-linejoin="round" stroke-width="2"/>
    <line id="Line_483" data-name="Line 483" x2="8.786" transform="translate(5.11 70.514)" fill="none" stroke="#003268" stroke-linecap="round" stroke-linejoin="round" stroke-width="2"/>
    <path id="Path_3826" data-name="Path 3826" d="M195.827,248h6.039" transform="translate(-176.653 -177.486)" fill="none" stroke="#003268" stroke-linecap="round" stroke-linejoin="round" stroke-width="2" stroke-dasharray="0.538 4.72"/>
    <path id="Path_3827" data-name="Path 3827" d="M236.05,220.352a3.536,3.536,0,0,0-3.427-6.135,3.174,3.174,0,1,0-5.46.857c-.1-.007-.195-.015-.294-.015A4.134,4.134,0,0,0,224,222.173a5.342,5.342,0,0,0,1.921,10.329,4.858,4.858,0,0,0,4.4-2.852,6.333,6.333,0,0,0,4.2,1.585,5.547,5.547,0,0,0,1.522-10.882Z" transform="translate(-179.588 -172.972)" fill="none" stroke="#003268" stroke-linecap="round" stroke-linejoin="round" stroke-width="2"/>
    <line id="Line_484" data-name="Line 484" x1="4.143" y1="2.223" transform="translate(46.603 51.748)" fill="none" stroke="#003268" stroke-linecap="round" stroke-linejoin="round" stroke-width="2"/>
    <line id="Line_485" data-name="Line 485" y1="22.361" transform="translate(50.74 43.369)" fill="none" stroke="#003268" stroke-linecap="round" stroke-linejoin="round" stroke-width="2"/>
    <path id="Path_3828" data-name="Path 3828" d="M234.1,219.475l-2.895,1.8-3.2-1.8" transform="translate(-180.47 -174.104)" fill="none" stroke="#003268" stroke-linecap="round" stroke-linejoin="round" stroke-width="2"/>
    <line id="Line_486" data-name="Line 486" y1="1.959" x2="4.46" transform="translate(50.745 52.013)" fill="none" stroke="#003268" stroke-linecap="round" stroke-linejoin="round" stroke-width="2"/>
    <path id="Path_3829" data-name="Path 3829" d="M202.678,196.409v-3.862h12.436v3.862" transform="translate(-177.465 -170.911)" fill="none" stroke="#003268" stroke-linecap="round" stroke-linejoin="round" stroke-width="2"/>
    <line id="Line_487" data-name="Line 487" y1="5.731" transform="translate(31.431 15.905)" fill="none" stroke="#003268" stroke-linecap="round" stroke-linejoin="round" stroke-width="2"/>
    <path id="Path_3830" data-name="Path 3830" d="M202.084,186.093v-10.81H186.951v33.124" transform="translate(-175.601 -168.864)" fill="none" stroke="#003268" stroke-linecap="round" stroke-linejoin="round" stroke-width="2"/>
    <line id="Line_488" data-name="Line 488" y1="6.419" transform="translate(18.849 0)" fill="none" stroke="#003268" stroke-linecap="round" stroke-linejoin="round" stroke-width="2"/>
    <line id="Line_489" data-name="Line 489" x1="5.904" transform="translate(15.965 11.799)" fill="none" stroke="#003268" stroke-linecap="round" stroke-linejoin="round" stroke-width="2" stroke-dasharray="0.478 5.581"/>
    <line id="Line_490" data-name="Line 490" x1="5.904" transform="translate(15.965 16.206)" fill="none" stroke="#003268" stroke-linecap="round" stroke-linejoin="round" stroke-width="2" stroke-dasharray="0.478 5.581"/>
    <line id="Line_491" data-name="Line 491" x1="5.904" transform="translate(15.965 20.613)" fill="none" stroke="#003268" stroke-linecap="round" stroke-linejoin="round" stroke-width="2" stroke-dasharray="0.478 5.581"/>
  </g>
</svg>
