<svg id="Group_3464" data-name="Group 3464" xmlns="http://www.w3.org/2000/svg" xmlns:xlink="http://www.w3.org/1999/xlink" width="75.3" height="61.588" viewBox="0 0 75.3 61.588">
  <defs>
    <clipPath id="clip-path">
      <rect id="Rectangle_1907" data-name="Rectangle 1907" width="75.3" height="61.588" fill="#003268" stroke="#003268" stroke-width="0.5"/>
    </clipPath>
  </defs>
  <g id="Group_3439" data-name="Group 3439" transform="translate(0 0)" clip-path="url(#clip-path)">
    <path id="Path_3842" data-name="Path 3842" d="M11.8,59.7a.793.793,0,0,1-.793-.793V54.959a.793.793,0,1,1,1.587,0v3.951a.793.793,0,0,1-.793.793" transform="translate(-1.305 -6.423)" fill="#003268" stroke="#003268" stroke-width="0.5"/>
    <path id="Path_3843" data-name="Path 3843" d="M35.137,55.634H7.975a.793.793,0,1,1,0-1.587H35.137a.793.793,0,1,1,0,1.587" transform="translate(-0.852 -6.409)" fill="#003268" stroke="#003268" stroke-width="0.5"/>
    <path id="Path_3844" data-name="Path 3844" d="M35.137,52.434H7.975a.793.793,0,1,1,0-1.587H35.137a.793.793,0,1,1,0,1.587" transform="translate(-0.852 -6.03)" fill="#003268" stroke="#003268" stroke-width="0.5"/>
    <path id="Path_3845" data-name="Path 3845" d="M35.137,49.235H7.975a.793.793,0,0,1,0-1.587H35.137a.793.793,0,0,1,0,1.587" transform="translate(-0.852 -5.65)" fill="#003268" stroke="#003268" stroke-width="0.5"/>
    <path id="Path_3846" data-name="Path 3846" d="M37.012,64.69H5.517a.793.793,0,0,1-.793-.793V59.88a.793.793,0,0,1,.793-.793H37.012a.793.793,0,0,1,.793.793V63.9a.793.793,0,0,1-.793.793M6.311,63.1H36.219v-2.43H6.311Z" transform="translate(-0.56 -7.007)" fill="#003268" stroke="#003268" stroke-width="0.5"/>
    <path id="Path_3847" data-name="Path 3847" d="M34.966,59.7a.793.793,0,0,1-.793-.793V54.959a.793.793,0,1,1,1.587,0v3.951a.793.793,0,0,1-.793.793" transform="translate(-4.052 -6.423)" fill="#003268" stroke="#003268" stroke-width="0.5"/>
    <path id="Path_3848" data-name="Path 3848" d="M13.169,69.168H9.576a.793.793,0,0,1-.793-.793v-3.66a.793.793,0,0,1,1.587,0v2.866h2.006V64.715a.793.793,0,0,1,1.587,0v3.66a.793.793,0,0,1-.793.793" transform="translate(-1.041 -7.58)" fill="#003268" stroke="#003268" stroke-width="0.5"/>
    <path id="Path_3849" data-name="Path 3849" d="M36.707,69.168H33.114a.793.793,0,0,1-.793-.793v-3.66a.793.793,0,0,1,1.587,0v2.866h2.006V64.715a.793.793,0,0,1,1.587,0v3.66a.793.793,0,0,1-.793.793" transform="translate(-3.833 -7.58)" fill="#003268" stroke="#003268" stroke-width="0.5"/>
    <path id="Path_3850" data-name="Path 3850" d="M48.91,66.647a.838.838,0,0,1-.2-.026.8.8,0,0,1-.568-.969C48.175,65.527,51.4,53,50.325,43.539A.793.793,0,1,1,51.9,43.36c1.106,9.756-2.087,22.169-2.223,22.693a.8.8,0,0,1-.768.593" transform="translate(-5.706 -5.058)" fill="#003268" stroke="#003268" stroke-width="0.5"/>
    <path id="Path_3851" data-name="Path 3851" d="M65.454,66.647a.8.8,0,0,1-.768-.593c-.136-.524-3.329-12.937-2.223-22.693a.793.793,0,1,1,1.576.179C62.967,53,66.19,65.527,66.223,65.652a.794.794,0,0,1-.568.969.838.838,0,0,1-.2.026" transform="translate(-7.379 -5.058)" fill="#003268" stroke="#003268" stroke-width="0.5"/>
    <path id="Path_3852" data-name="Path 3852" d="M71.26,28.777a.793.793,0,0,1-.657-1.238A16.375,16.375,0,0,0,67.78,5.96,17.615,17.615,0,0,0,55.245,1.607c-9.588.447-17.039,8.343-16.607,17.6a12.951,12.951,0,0,0,.555,3.53.793.793,0,1,1-1.519.459,14.513,14.513,0,0,1-.621-3.915C36.581,9.149,44.709.509,55.171.022A19.19,19.19,0,0,1,68.829,4.769a17.963,17.963,0,0,1,3.09,23.658.794.794,0,0,1-.658.349" transform="translate(-4.391 0)" fill="#003268" stroke="#003268" stroke-width="0.5"/>
    <path id="Path_3853" data-name="Path 3853" d="M33.015,42.78a.791.791,0,0,1-.632-.316,10.206,10.206,0,0,1-1.607-5.258,12.415,12.415,0,0,1,6.552-11.9,14.928,14.928,0,0,1,6.437-1.387.793.793,0,0,1-.057,1.586,13.518,13.518,0,0,0-5.68,1.226A10.814,10.814,0,0,0,32.36,37.113a8.861,8.861,0,0,0,1.294,4.4.794.794,0,0,1-.639,1.266" transform="translate(-3.647 -2.836)" fill="#003268" stroke="#003268" stroke-width="0.5"/>
    <path id="Path_3854" data-name="Path 3854" d="M45.207,52.794c-.44,0-.879-.022-1.311-.065a.793.793,0,1,1,.16-1.579,11.857,11.857,0,0,0,1.691.045c.345-.016.686-.048,1.021-.093a.793.793,0,0,1,.216,1.572q-.574.078-1.163.106-.307.015-.613.014" transform="translate(-5.12 -6.059)" fill="#003268" stroke="#003268" stroke-width="0.5"/>
    <path id="Path_3855" data-name="Path 3855" d="M69.775,50.883a13.416,13.416,0,0,1-2.9-.317.793.793,0,1,1,.345-1.549,11.788,11.788,0,0,0,9.1-21.318.794.794,0,1,1,.881-1.32,13.435,13.435,0,0,1,5.947,10.51A13.37,13.37,0,0,1,70.406,50.868c-.21.011-.42.015-.631.015" transform="translate(-7.856 -3.113)" fill="#003268" stroke="#003268" stroke-width="0.5"/>
    <path id="Path_3856" data-name="Path 3856" d="M64.178,69.661H.793a.793.793,0,0,1,0-1.587H64.178a.793.793,0,0,1,0,1.587" transform="translate(0 -8.072)" fill="#003268" stroke="#003268" stroke-width="0.5"/>
    <path id="Path_3857" data-name="Path 3857" d="M78.818,69.661H76.541a.793.793,0,0,1,0-1.587h2.277a.793.793,0,0,1,0,1.587" transform="translate(-8.982 -8.072)" fill="#003268" stroke="#003268" stroke-width="0.5"/>
  </g>
</svg>
